<svg width="160" height="161" viewBox="0 0 160 161" fill="none" xmlns="http://www.w3.org/2000/svg">
<path d="M80 144.541C115.346 144.541 144 115.887 144 80.5413C144 45.195 115.346 16.5413 80 16.5413C44.6538 16.5413 16 45.195 16 80.5413C16 115.887 44.6538 144.541 80 144.541Z" fill="#DACCFF"/>
<path fill-rule="evenodd" clip-rule="evenodd" d="M138.246 34.6257L141.589 32.7975C141.871 32.6437 142.102 32.4122 142.256 32.1306L144.084 28.7876C144.206 28.5653 144.416 28.5413 144.5 28.5413C144.584 28.5413 144.794 28.5653 144.916 28.7876L146.874 32.3682C146.943 32.4945 147.047 32.5984 147.173 32.6673L150.754 34.6257C150.976 34.7473 151 34.9569 151 35.0413C151 35.1257 150.976 35.3352 150.754 35.4568L147.411 37.2851C147.129 37.4389 146.898 37.6703 146.744 37.9519L144.916 41.2949C144.794 41.5172 144.585 41.5413 144.5 41.5413C144.416 41.5413 144.206 41.5172 144.085 41.2949L142.256 37.9519C142.102 37.6704 141.871 37.4389 141.589 37.2852L138.246 35.4568C138.024 35.3352 138 35.1257 138 35.0413C138 34.9569 138.024 34.7473 138.246 34.6257Z" fill="#DACCFF"/>
<path fill-rule="evenodd" clip-rule="evenodd" d="M15.1137 31.3495L16.6566 30.5057C16.7866 30.4347 16.8934 30.3278 16.9643 30.1979L17.8082 28.655C17.8643 28.5524 17.961 28.5413 18 28.5413C18.039 28.5413 18.1357 28.5524 18.1918 28.655L19.0956 30.3075C19.1274 30.3659 19.1753 30.4138 19.2336 30.4456L20.8863 31.3495C20.9889 31.4056 21 31.5023 21 31.5413C21 31.5802 20.9889 31.6769 20.8863 31.733L19.3435 32.5769C19.2135 32.6479 19.1067 32.7547 19.0357 32.8846L18.1919 34.4276C18.1358 34.5302 18.039 34.5413 18.0001 34.5413C17.9611 34.5413 17.8644 34.5302 17.8083 34.4276L16.9644 32.8846C16.8934 32.7547 16.7866 32.6479 16.6566 32.5769L15.1137 31.733C15.0111 31.6769 15 31.5802 15 31.5413C15 31.5023 15.0111 31.4056 15.1137 31.3495Z" fill="#DACCFF"/>
<path fill-rule="evenodd" clip-rule="evenodd" d="M136.114 141.349L137.657 140.506C137.787 140.435 137.893 140.328 137.964 140.198L138.808 138.655C138.864 138.552 138.961 138.541 139 138.541C139.039 138.541 139.136 138.552 139.192 138.655L140.096 140.308C140.127 140.366 140.175 140.414 140.234 140.446L141.886 141.349C141.989 141.406 142 141.502 142 141.541C142 141.58 141.989 141.677 141.886 141.733L140.343 142.577C140.214 142.648 140.107 142.755 140.036 142.885L139.192 144.428C139.136 144.53 139.039 144.541 139 144.541C138.961 144.541 138.864 144.53 138.808 144.428L137.964 142.885C137.893 142.755 137.787 142.648 137.657 142.577L136.114 141.733C136.011 141.677 136 141.58 136 141.541C136 141.502 136.011 141.406 136.114 141.349Z" fill="#DACCFF"/>
<path fill-rule="evenodd" clip-rule="evenodd" d="M12.2464 141.626L15.5894 139.797C15.8709 139.644 16.1023 139.412 16.256 139.131L18.0845 135.788C18.206 135.565 18.4156 135.541 18.5 135.541C18.5844 135.541 18.794 135.565 18.9155 135.788L20.8738 139.368C20.9427 139.495 21.0465 139.598 21.1729 139.667L24.7537 141.626C24.9759 141.747 25 141.957 25 142.041C25 142.126 24.9759 142.335 24.7537 142.457L21.4108 144.285C21.1293 144.439 20.8978 144.67 20.744 144.952L18.9157 148.295C18.7941 148.517 18.5846 148.541 18.5002 148.541C18.4158 148.541 18.2062 148.517 18.0847 148.295L16.2562 144.952C16.1024 144.67 15.8709 144.439 15.5894 144.285L12.2464 142.457C12.0241 142.335 12 142.126 12 142.041C12 141.957 12.0241 141.747 12.2464 141.626Z" fill="#DACCFF"/>
<path fill-rule="evenodd" clip-rule="evenodd" d="M120.038 24.0911C124.445 24.0911 128.017 27.7847 128.017 32.3411C128.017 32.4919 128.013 32.6419 128.006 32.7907H112.07C112.062 32.6419 112.059 32.4919 112.059 32.3411C112.059 27.7847 115.631 24.0911 120.038 24.0911Z" fill="#655F8F"/>
<path fill-rule="evenodd" clip-rule="evenodd" d="M120.536 24.5411L120.533 24.5846C118.519 24.7432 116.412 25.3547 115.062 26.7411C113.193 28.66 112.574 31.9031 112.574 35.0173V124.065L112.59 123.879L112.574 124.091C112.574 129.877 108.908 134.541 103.895 134.541H48.997C43.9841 134.541 39.9203 129.851 39.9203 124.065V35.0173C39.9203 29.2314 43.9841 24.5411 48.997 24.5411H120.536Z" fill="#DEEAFF"/>
<path d="M112.574 124.091C112.574 129.877 108.908 134.541 103.895 134.541H48.9969C43.984 134.541 39.9202 129.851 39.9202 124.065L39.9202 35.0173C39.9202 29.2314 43.984 24.5411 48.9969 24.5411L120.536 24.5411" stroke="#354053"/>
<path d="M112.574 124.641L112.574 32.7911C112.574 28.2347 115.916 24.5411 120.038 24.5411C122.288 24.5411 124.305 25.6414 125.674 27.3817C126.813 28.83 127.502 30.7215 127.502 32.7911" stroke="#354053"/>
<path fill-rule="evenodd" clip-rule="evenodd" d="M99.1369 115.291L99.1377 120.372C99.1377 127.894 101.211 133.991 106.224 133.991H49.4973C44.4829 133.991 40.4179 127.471 40.4179 119.429V115.291H99.1369Z" fill="#655F8F" fill-opacity="0.3"/>
<path fill-rule="evenodd" clip-rule="evenodd" d="M95.654 121.891L95.6543 124.065C95.6543 129.686 99.4902 134.273 104.306 134.53C104.17 134.538 104.033 134.541 103.895 134.541H32.0777C27.0648 134.541 23.001 129.851 23.001 124.065L23 121.891H95.654Z" fill="#B486FF" stroke="#354053"/>
<path fill-rule="evenodd" clip-rule="evenodd" d="M84 103.541V105.541H52V103.541H84ZM84 96.5413V98.5413H52V96.5413H84ZM67 89.5413V91.5413H52V89.5413H67ZM76 89.5413V91.5413H71V89.5413H76ZM76 82.5413V84.5413H52V82.5413H76ZM100 75.5413V77.5413H52V75.5413H100ZM100 68.5413V70.5413H52V68.5413H100ZM84 61.5413V63.5413H52V61.5413H84Z" fill="#B486FF"/>
<path fill-rule="evenodd" clip-rule="evenodd" d="M52 41.5413H92V49.5413H52V41.5413Z" fill="#B486FF"/>
<path fill-rule="evenodd" clip-rule="evenodd" d="M48 27.5413H108C108.552 27.5413 109 27.989 109 28.5413C109 29.0935 108.552 29.5413 108 29.5413H48C47.4477 29.5413 47 29.0935 47 28.5413C47 27.989 47.4477 27.5413 48 27.5413Z" fill="white"/>
<path d="M117.577 82.8077L128.624 87.4965L114.948 119.714L111.379 112.767L103.902 115.025L117.577 82.8077Z" fill="#8ACC1A"/>
<path fill-rule="evenodd" clip-rule="evenodd" d="M116.5 86.5412L121.5 88.5412L111.5 112.041L104.5 114.541L116.5 86.5412Z" fill="#78A017" fill-opacity="0.6"/>
<path d="M129.425 87.2521L117.458 82.1726L103.17 115.833L111.27 113.387L115.137 120.913L129.425 87.2521ZM128.113 87.7814L115.05 118.557L111.778 112.189L104.925 114.259L117.988 83.4834L128.113 87.7814Z" fill="#354053"/>
<path d="M117.606 87.6565L128.888 83.5693L140.809 116.477L133.465 113.819L129.527 120.564L117.606 87.6565Z" fill="#8ACC1A"/>
<path fill-rule="evenodd" clip-rule="evenodd" d="M119.359 91.1245L124.383 89.1848L133.06 113.205L129.635 119.802L119.359 91.1245Z" fill="#78A017" fill-opacity="0.6"/>
<path d="M129.309 82.8448L117.086 87.2726L129.541 121.654L133.807 114.347L141.764 117.226L129.309 82.8448ZM128.709 84.1253L140.096 115.559L133.364 113.123L129.754 119.306L118.367 87.8718L128.709 84.1253Z" fill="#354053"/>
<path d="M104.5 85.5411C104.5 95.4821 112.558 103.541 122.499 103.541C132.441 103.541 140.499 95.4821 140.499 85.5411C140.499 79.1104 137.069 73.1681 131.499 69.9528C125.93 66.7374 119.069 66.7374 113.5 69.9528C107.93 73.1681 104.5 79.1104 104.5 85.5411Z" fill="#EFCD00"/>
<path d="M122.499 99.387C130.147 99.387 136.346 93.1882 136.346 85.5411C136.346 77.8943 130.147 71.6948 122.499 71.6948C114.853 71.6948 108.653 77.8943 108.653 85.5411C108.653 93.1882 114.853 99.3874 122.499 99.3874V99.387ZM122.499 103.541C112.558 103.541 104.5 95.4821 104.5 85.5407C104.5 75.6 112.558 67.5413 122.499 67.5413C132.441 67.5413 140.5 75.6 140.5 85.5411C140.5 95.4821 132.441 103.541 122.499 103.541H122.499Z" fill="#FFE32B"/>
<path d="M132.398 70.5052C137.279 73.7248 140.499 79.2569 140.499 85.5411C140.499 95.4822 132.441 103.541 122.5 103.541C120.927 103.541 119.402 103.34 117.948 102.961L119.668 99.0977C120.599 99.2909 121.548 99.3879 122.499 99.3874C130.147 99.3874 136.346 93.1882 136.346 85.5411C136.346 80.9536 134.115 76.8873 130.678 74.3679L132.398 70.5052ZM119.609 71.9975C113.349 73.327 108.654 78.8856 108.654 85.5411C108.65 87.9681 109.287 90.3531 110.5 92.4549L108.526 96.8888C105.916 93.6835 104.493 89.6745 104.5 85.5407C104.5 75.9076 112.068 68.042 121.582 67.564L119.609 71.9975Z" fill="#FFE32B"/>
<path d="M130.679 74.3675C128.307 72.6268 125.441 71.6904 122.499 71.6952C121.508 71.6952 120.541 71.7996 119.609 71.9972L121.582 67.5648C121.886 67.5488 122.192 67.5413 122.499 67.5413C126.018 67.5357 129.461 68.5665 132.398 70.5052L130.679 74.3675Z" fill="#FFE853"/>
<path d="M118.854 93.9193C118.172 94.1994 117.393 94.1047 116.797 93.6692C116.202 93.2337 115.875 92.52 115.935 91.7846L116.176 88.8371C116.223 88.2678 116.038 87.7039 115.663 87.2728L113.73 85.0501C113.242 84.4893 113.083 83.714 113.312 83.0067C113.54 82.2994 114.122 81.7632 114.846 81.5934L117.781 80.9044C118.329 80.7758 118.803 80.4346 119.099 79.956L120.696 77.3765C121.083 76.752 121.765 76.372 122.499 76.372C123.234 76.372 123.916 76.752 124.303 77.3765L125.9 79.9564C126.196 80.4348 126.671 80.7759 127.219 80.9044L130.154 81.5934C130.877 81.7633 131.459 82.2995 131.687 83.0068C131.916 83.7141 131.757 84.4893 131.269 85.0501L129.337 87.2728C128.962 87.7038 128.776 88.2678 128.823 88.8371L129.064 91.7846C129.124 92.52 128.797 93.2337 128.202 93.6692C127.606 94.1047 126.827 94.1994 126.144 93.9193L123.305 92.7539C122.789 92.5422 122.21 92.5422 121.694 92.7539L118.854 93.9193Z" fill="#FFF318"/>
<path d="M118.385 94.1125L117.743 94.3757C117.298 94.5586 117.389 93.8256 117 93.5413C116.611 93.257 115.798 93.4622 115.838 92.9821L116.202 88.5285C116.232 88.1567 116.111 87.7884 115.866 87.507L112.929 84.1293C112.611 83.7631 112.851 83.5029 113 83.0413C113.149 82.5797 113.185 81.9839 113.657 81.873L118.078 80.8351C118.436 80.7512 118.745 80.5285 118.939 80.2162L121.323 76.3658C121.575 75.9582 122.021 76.5413 122.5 76.5413C122.979 76.5413 123.424 75.9582 123.677 76.3658L126.061 80.2158C126.254 80.5283 126.564 80.7511 126.921 80.8351L127.671 81.0111C122.534 83.0791 118.802 88.1139 118.385 94.1125Z" fill="#FFFE4F"/>
<path d="M118.854 93.9193C118.172 94.1994 117.393 94.1047 116.797 93.6692C116.202 93.2337 115.875 92.52 115.935 91.7846L116.176 88.8371C116.223 88.2678 116.038 87.7039 115.663 87.2728L113.73 85.0501C113.242 84.4893 113.083 83.714 113.312 83.0067C113.54 82.2994 114.122 81.7632 114.846 81.5934L117.781 80.9044C118.329 80.7758 118.803 80.4346 119.099 79.956L120.696 77.3765C121.083 76.752 121.765 76.372 122.499 76.372C123.234 76.372 123.916 76.752 124.303 77.3765L125.9 79.9564C126.196 80.4348 126.671 80.7759 127.219 80.9044L130.154 81.5934C130.877 81.7633 131.459 82.2995 131.687 83.0068C131.916 83.7141 131.757 84.4893 131.269 85.0501L129.337 87.2728C128.962 87.7038 128.776 88.2678 128.823 88.8371L129.064 91.7846C129.124 92.52 128.797 93.2337 128.202 93.6692C127.606 94.1047 126.827 94.1994 126.144 93.9193L123.305 92.7539C122.789 92.5422 122.21 92.5422 121.694 92.7539L118.854 93.9193Z" stroke="#354053"/>
<path d="M122 67.0413C111.783 67.0413 103.5 75.324 103.5 85.5413C103.5 95.7585 111.783 104.041 122 104.041C132.217 104.041 140.5 95.7585 140.5 85.5413C140.5 75.324 132.217 67.0413 122 67.0413ZM122 68.0413C131.665 68.0413 139.5 75.8763 139.5 85.5413C139.5 95.2062 131.665 103.041 122 103.041C112.335 103.041 104.5 95.2062 104.5 85.5413C104.5 75.8763 112.335 68.0413 122 68.0413Z" fill="#354053"/>
<path d="M122 71.0413C122.276 71.0413 122.5 71.2651 122.5 71.5413C122.5 71.8174 122.276 72.0413 122 72.0413C114.544 72.0413 108.5 78.0854 108.5 85.5413C108.5 92.9971 114.544 99.0413 122 99.0413C129.456 99.0413 135.5 92.9971 135.5 85.5413C135.5 83.9445 135.223 82.3865 134.688 80.9184C134.593 80.6589 134.727 80.372 134.986 80.2774C135.246 80.1828 135.533 80.3165 135.627 80.576C136.202 82.1535 136.5 83.8273 136.5 85.5413C136.5 93.5494 130.008 100.041 122 100.041C113.992 100.041 107.5 93.5494 107.5 85.5413C107.5 77.5331 113.992 71.0413 122 71.0413ZM128.223 72.0938C130.204 73.0811 131.964 74.4912 133.386 76.224C133.562 76.4374 133.531 76.7525 133.317 76.9277C133.104 77.1029 132.789 77.072 132.614 76.8585C131.28 75.2339 129.631 73.9128 127.777 72.9887C127.53 72.8656 127.429 72.5653 127.553 72.3182C127.676 72.0711 127.976 71.9706 128.223 72.0938Z" fill="#354053"/>
<path opacity="0.5" d="M29.652 76.1946L29.6199 55.5128L29.652 76.1946Z" fill="#FFCC90"/>
<path d="M9.98483 55.5128L9.9834 55.5157L29.5622 76.1946L20.6265 55.5128H9.98483Z" fill="#845EF7"/>
<path d="M14.9482 47.1946H14.9397L9.9848 55.5128H20.6265L14.9482 47.1946Z" fill="#F9F1FF"/>
<path d="M29.5321 47.1946H14.9483L20.6265 55.5128L29.5321 47.1946Z" fill="#A485FF"/>
<path opacity="0.5" d="M29.5698 76.1946L29.6019 55.5128L29.5698 76.1946Z" fill="#FFCC90"/>
<path d="M49.0793 55.5128L49.0808 55.5157L29.502 76.1946L38.4377 55.5128H49.0793Z" fill="#845EF7"/>
<path d="M44.1159 47.1946H44.1245L49.0793 55.5128H38.4376L44.1159 47.1946Z" fill="#ECE4F2"/>
<path d="M29.5478 47.2089V47.1946H29.5163V47.2089L20.6265 55.5128H38.4376L29.5478 47.2089Z" fill="#845EF7"/>
<path d="M29.5321 47.1946H44.1159L38.4376 55.5128L29.5321 47.1946ZM38.4376 55.5128H20.6265L29.502 76.0456V76.1946L29.5321 76.1201L29.5622 76.1946V76.0456L38.4376 55.5128Z" fill="#A485FF"/>
<path d="M44.2503 46.6917H15.305L9.70215 55.3291L29.1941 75.7548L49.6197 55.3291L44.2503 46.6917Z" stroke="#354053"/>
</svg>
