<svg width="160" height="161" viewBox="0 0 160 161" fill="none" xmlns="http://www.w3.org/2000/svg">
<path d="M80 144.541C115.346 144.541 144 115.887 144 80.5413C144 45.195 115.346 16.5413 80 16.5413C44.6538 16.5413 16 45.195 16 80.5413C16 115.887 44.6538 144.541 80 144.541Z" fill="#DACCFF"/>
<path d="M108.544 88.5413C108.544 88.5413 113.64 95.7514 117.885 126.861C118.604 132.132 115.909 137.283 111.165 139.705L105.608 142.541L97 101.02L108.544 88.5413Z" fill="#DEEAFF" stroke="#354053"/>
<path d="M51.4559 88.5413C51.4559 88.5413 46.3598 95.7514 42.1151 126.861C41.3965 132.132 44.0907 137.283 48.8354 139.705L54.3919 142.541L63 101.02L51.4559 88.5413Z" fill="#DEEAFF" stroke="#354053"/>
<path d="M79.5 78.5413L108 87.9295C108 87.9295 102.997 116.962 102.005 141.541H56.9953C56.0027 116.962 51 87.9295 51 87.9295L79.5 78.5413Z" fill="#965EFB" stroke="#354053"/>
<path d="M92 93.5413L89.4203 108.891L80.5 120.541L71.5797 108.891L69 93.5413H92Z" fill="#ECE4F2"/>
<path d="M80 120.541C80 120.541 87 103.756 85.617 87.7733L90.4276 81.5413C90.4276 81.5413 103.365 100.259 80 120.541ZM80 120.541C80 120.541 73 103.756 74.3829 87.7733L69.573 81.5413C69.573 81.5413 56.6345 100.259 80 120.541Z" fill="#B486FF"/>
<path d="M80.5 92.262C86.9182 95.8547 90.3294 101.378 92.0933 105.567C92.4538 106.424 93.323 106.695 94.0396 106.461C94.5605 106.292 95.0012 105.857 95.1082 105.188C96.2904 97.8194 97.1706 85.8374 91.7809 80.3875C89.1167 77.6944 83.6602 73.8315 80.5 73.5413C77.3392 73.8315 71.8833 77.6944 69.2191 80.3875C63.8294 85.8374 64.7096 97.8194 65.8918 105.188C65.9988 105.857 66.4389 106.292 66.9604 106.461C67.677 106.695 68.5462 106.424 68.9067 105.567C70.6706 101.378 74.0818 95.8547 80.5 92.262Z" fill="#DEEAFF" stroke="#354053"/>
<path d="M80 92.5413C86.8735 88.1346 89 81.5946 89 81.5946L86.1697 72.5413H73.8303L71 81.5946C71 81.5946 73.1265 88.134 80 92.5413Z" fill="#FCD0A3" stroke="#354053"/>
<path d="M97 37.0413C101.726 41.2855 104 47.9873 104 56.2669C104 72.7428 95.8684 77.1566 92.7249 78.5413C92.7249 78.5413 89.8091 72.1613 80.5 72.1613C71.1909 72.1613 68.2751 78.5413 68.2751 78.5413C65.1316 77.1566 57 72.7428 57 56.2669C57 48.1059 59.3929 41.2878 64 37.0413C68.1633 33.2037 74.2152 31.5413 80.5 31.5413C86.6839 31.5413 92.8579 33.3213 97 37.0413Z" fill="#3A3A68"/>
<path d="M80 80.5413C87.8522 80.5413 97 67.7649 97 53.5368C97 39.2093 88.265 34.5413 80 34.5413C71.7356 34.5413 63 39.2087 63 53.5368C63 67.7655 72.1478 80.5413 80 80.5413Z" fill="#FEDDC3" stroke="#354053"/>
<path d="M61.3006 58.9126C61.3006 58.9126 80.1412 57.6463 85.5824 48.0413C85.5824 48.0413 89.5933 60.4545 97.94 62.5413L100 50.7878L94.797 38.5945L81.897 33.5413L71.3982 34.9296L62.6018 41.8896L60 49.7994L61.3006 58.9132V58.9126Z" fill="#3A3A68"/>
<path fill-rule="evenodd" clip-rule="evenodd" d="M80.5866 29.0413C87.3956 29.0413 93.5396 30.9438 97.855 34.6995C101.787 38.1218 104.184 43.0838 104.184 49.5141V55.5165C105.482 55.3977 106.618 55.8436 107.398 56.6286C108.09 57.3241 108.5 58.2835 108.5 59.34V65.1996C108.5 66.2625 108.086 67.2256 107.413 67.9224C106.747 68.6127 105.827 69.0413 104.81 69.0413H101.956V49.5141C101.956 43.6485 99.7664 39.2469 96.2045 36.2359C92.2979 32.9333 86.7158 31.3057 80.5079 31.3057C74.2999 31.3057 68.7179 32.9333 64.8112 36.2359C61.2494 39.2469 59.0601 43.6485 59.0601 49.5141V69.0413H56.1896C55.1727 69.0413 54.253 68.6127 53.5869 67.9224C52.9145 67.2256 52.5 66.2625 52.5 65.1996L52.5 59.3418C52.5038 58.28 52.9193 57.3184 53.5915 56.6219C54.3587 55.8268 55.461 55.3775 56.6615 55.5266L56.9888 49.5276C56.9854 43.0907 59.3832 38.1242 63.3183 34.6995C67.6336 30.9438 73.7777 29.0413 80.5866 29.0413Z" fill="#8ACC1A" stroke="#354053"/>
<path fill-rule="evenodd" clip-rule="evenodd" d="M9.24635 26.6257L12.5894 24.7975C12.8709 24.6437 13.1023 24.4122 13.256 24.1306L15.0845 20.7876C15.206 20.5653 15.4156 20.5413 15.5 20.5413C15.5844 20.5413 15.794 20.5653 15.9155 20.7876L17.8738 24.3682C17.9427 24.4946 18.0465 24.5984 18.1729 24.6673L21.7537 26.6257C21.9759 26.7473 22 26.9569 22 27.0413C22 27.1257 21.9759 27.3352 21.7537 27.4568L18.4108 29.2851C18.1293 29.4389 17.8978 29.6703 17.744 29.9519L15.9157 33.2949C15.7941 33.5172 15.5846 33.5413 15.5002 33.5413C15.4158 33.5413 15.2062 33.5172 15.0847 33.2949L13.2562 29.9519C13.1024 29.6704 12.8709 29.4389 12.5894 29.2852L9.24635 27.4568C9.02407 27.3352 9 27.1257 9 27.0413C9 26.9569 9.02407 26.7473 9.24635 26.6257Z" fill="#DACCFF"/>
<path fill-rule="evenodd" clip-rule="evenodd" d="M118.114 13.3495L119.657 12.5057C119.787 12.4347 119.893 12.3278 119.964 12.1979L120.808 10.655C120.864 10.5524 120.961 10.5413 121 10.5413C121.039 10.5413 121.136 10.5524 121.192 10.655L122.096 12.3075C122.127 12.3659 122.175 12.4138 122.234 12.4456L123.886 13.3495C123.989 13.4056 124 13.5023 124 13.5413C124 13.5802 123.989 13.6769 123.886 13.733L122.343 14.5769C122.214 14.6479 122.107 14.7547 122.036 14.8846L121.192 16.4276C121.136 16.5302 121.039 16.5413 121 16.5413C120.961 16.5413 120.864 16.5302 120.808 16.4276L119.964 14.8846C119.893 14.7547 119.787 14.6479 119.657 14.5769L118.114 13.733C118.011 13.6769 118 13.5802 118 13.5413C118 13.5023 118.011 13.4056 118.114 13.3495Z" fill="#DACCFF"/>
<path fill-rule="evenodd" clip-rule="evenodd" d="M14.1137 138.349L15.6566 137.506C15.7866 137.435 15.8934 137.328 15.9643 137.198L16.8082 135.655C16.8643 135.552 16.961 135.541 17 135.541C17.039 135.541 17.1357 135.552 17.1918 135.655L18.0956 137.308C18.1274 137.366 18.1753 137.414 18.2336 137.446L19.8863 138.349C19.9889 138.406 20 138.502 20 138.541C20 138.58 19.9889 138.677 19.8863 138.733L18.3435 139.577C18.2135 139.648 18.1067 139.755 18.0357 139.885L17.1919 141.428C17.1358 141.53 17.039 141.541 17.0001 141.541C16.9611 141.541 16.8644 141.53 16.8083 141.428L15.9644 139.885C15.8934 139.755 15.7866 139.648 15.6566 139.577L14.1137 138.733C14.0111 138.677 14 138.58 14 138.541C14 138.502 14.0111 138.406 14.1137 138.349Z" fill="#DACCFF"/>
<path fill-rule="evenodd" clip-rule="evenodd" d="M136.246 137.626L139.589 135.797C139.871 135.644 140.102 135.412 140.256 135.131L142.084 131.788C142.206 131.565 142.416 131.541 142.5 131.541C142.584 131.541 142.794 131.565 142.916 131.788L144.874 135.368C144.943 135.495 145.047 135.598 145.173 135.667L148.754 137.626C148.976 137.747 149 137.957 149 138.041C149 138.126 148.976 138.335 148.754 138.457L145.411 140.285C145.129 140.439 144.898 140.67 144.744 140.952L142.916 144.295C142.794 144.517 142.585 144.541 142.5 144.541C142.416 144.541 142.206 144.517 142.085 144.295L140.256 140.952C140.102 140.67 139.871 140.439 139.589 140.285L136.246 138.457C136.024 138.335 136 138.126 136 138.041C136 137.957 136.024 137.747 136.246 137.626Z" fill="#DACCFF"/>
<path d="M115 21.5413H142C144.209 21.5413 146 23.3321 146 25.5413V41.5413C146 43.7504 144.209 45.5413 142 45.5413H136.674L124.403 55.5413V45.5413H115C112.791 45.5413 111 43.7504 111 41.5413V25.5413C111 23.3321 112.791 21.5413 115 21.5413Z" fill="#8ACC1A"/>
<path fill-rule="evenodd" clip-rule="evenodd" d="M124.403 52.9117V55.5412L136.674 45.5412H142C144.209 45.5412 146 43.7504 146 41.5412V25.5412C146 23.5769 144.584 21.9433 142.717 21.6053C143.506 22.336 144 23.3809 144 24.5412V40.5412C144 42.7504 142.21 44.5412 140 44.5412H134.674L124.403 52.9117Z" fill="#78A017"/>
<g filter="url(#filter0_i_7_2263)">
<path d="M115 21.5413H128.5H142C144.209 21.5413 146 23.3321 146 25.5413V41.5413C146 43.7504 144.209 45.5413 142 45.5413H136.674L124.403 55.5413V45.5413H115C112.791 45.5413 111 43.7504 111 41.5413V25.5413C111 23.3321 112.791 21.5413 115 21.5413Z" stroke="#354053"/>
</g>
<path fill-rule="evenodd" clip-rule="evenodd" d="M131 35.5413V37.5413H117V35.5413H131ZM140 35.5413V37.5413H135V35.5413H140ZM140 28.5413V30.5413H117V28.5413H140Z" fill="white"/>
<path fill-rule="evenodd" clip-rule="evenodd" d="M123.947 105.796C124.752 106.719 125.169 108.051 124.935 109.44L118.775 146.019C118.683 146.57 118.442 147.086 118.079 147.507C117.515 148.164 116.698 148.541 115.839 148.541H44.1615C43.3022 148.541 42.4852 148.164 41.9214 147.507C41.5585 147.085 41.3178 146.57 41.2256 146.019L35.0647 109.44C34.8307 108.051 35.2478 106.719 36.0528 105.796C36.7244 105.027 37.6641 104.541 38.723 104.541H121.276C122.336 104.541 123.276 105.027 123.947 105.796Z" fill="#DEEAFF" stroke="#354053"/>
<path fill-rule="evenodd" clip-rule="evenodd" d="M121.276 104.541C122.336 104.541 123.276 105.027 123.947 105.796C124.752 106.719 125.169 108.051 124.935 109.44L118.775 146.019C118.683 146.57 118.442 147.086 118.079 147.507C117.515 148.164 116.698 148.541 115.839 148.541H108.839C109.698 148.541 110.515 148.164 111.079 147.507C111.442 147.086 111.683 146.57 111.775 146.019L116.935 109.44C117.169 108.051 116.752 106.719 115.947 105.796C115.276 105.027 114.336 104.541 113.276 104.541H121.276Z" fill="#B486FF" fill-opacity="0.309044"/>
<path d="M121.277 106.919C122.336 106.919 123.276 107.358 123.948 108.054C124.352 108.474 124.654 108.983 124.83 109.541L124.935 108.973C125.16 107.778 124.792 106.547 123.948 105.676C123.248 104.948 122.283 104.538 121.276 104.541H38.7231C37.6642 104.541 36.7245 104.98 36.0529 105.676C35.2087 106.547 34.8398 107.778 35.0647 108.973L35.1703 109.541C35.3456 108.983 35.6478 108.474 36.0529 108.054C36.7528 107.326 37.7168 106.916 38.7231 106.919H121.277ZM80.0003 120.791C84.6275 120.791 88.3796 123.869 88.3796 127.666C88.3796 131.463 84.6275 134.541 80.0003 134.541C75.3724 134.541 71.6209 131.463 71.6209 127.666C71.6209 123.869 75.3724 120.791 80.0003 120.791Z" fill="#ACA1CC"/>
<path fill-rule="evenodd" clip-rule="evenodd" d="M123.947 105.796C124.752 106.719 125.169 108.051 124.935 109.44L118.775 146.019C118.683 146.57 118.442 147.086 118.079 147.507C117.515 148.164 116.698 148.541 115.839 148.541H44.1615C43.3022 148.541 42.4852 148.164 41.9214 147.507C41.5585 147.085 41.3178 146.57 41.2256 146.019L35.0647 109.44C34.8307 108.051 35.2478 106.719 36.0528 105.796C36.7244 105.027 37.6641 104.541 38.723 104.541H121.276C122.336 104.541 123.276 105.027 123.947 105.796Z" stroke="#354053"/>
<defs>
<filter id="filter0_i_7_2263" x="107.5" y="19.0413" width="39" height="37.5524" filterUnits="userSpaceOnUse" color-interpolation-filters="sRGB">
<feFlood flood-opacity="0" result="BackgroundImageFix"/>
<feBlend mode="normal" in="SourceGraphic" in2="BackgroundImageFix" result="shape"/>
<feColorMatrix in="SourceAlpha" type="matrix" values="0 0 0 0 0 0 0 0 0 0 0 0 0 0 0 0 0 0 127 0" result="hardAlpha"/>
<feOffset dx="-3" dy="-2"/>
<feGaussianBlur stdDeviation="20"/>
<feComposite in2="hardAlpha" operator="arithmetic" k2="-1" k3="1"/>
<feColorMatrix type="matrix" values="0 0 0 0 0.345833 0 0 0 0 0.321337 0 0 0 0 0.321337 0 0 0 0.25 0"/>
<feBlend mode="normal" in2="shape" result="effect1_innerShadow_7_2263"/>
</filter>
</defs>
</svg>
