<svg width="15" height="18" viewBox="0 0 15 18" fill="none" xmlns="http://www.w3.org/2000/svg">
<path d="M6.49999 16.3476C6.50003 16.8999 6.94777 17.3476 7.50005 17.3476C8.05234 17.3476 8.50003 16.8998 8.49999 16.3475L6.49999 16.3476ZM8.2062 0.94544C7.81565 0.554938 7.18248 0.554975 6.79198 0.945523L0.428395 7.30986C0.0378938 7.70041 0.0379308 8.33357 0.428478 8.72407C0.819026 9.11457 1.45219 9.11454 1.84269 8.72399L7.49921 3.0668L13.1564 8.72332C13.5469 9.11382 14.1801 9.11379 14.5706 8.72324C14.9611 8.33269 14.9611 7.69953 14.5705 7.30903L8.2062 0.94544ZM8.49999 16.3475L8.49913 1.65253L6.49913 1.65265L6.49999 16.3476L8.49999 16.3475Z" fill="white"/>
</svg>
