<svg width="120" height="120" viewBox="0 0 120 120" fill="none" xmlns="http://www.w3.org/2000/svg">
<g filter="url(#filter0_d_7_2088)">
<path d="M100 20H44C39.5817 20 36 23.5817 36 28V102C36 106.418 39.5817 110 44 110H100C104.418 110 108 106.418 108 102V28C108 23.5817 104.418 20 100 20Z" fill="black"/>
</g>
<path d="M100 20H44C39.5817 20 36 23.5817 36 28V102C36 106.418 39.5817 110 44 110H100C104.418 110 108 106.418 108 102V28C108 23.5817 104.418 20 100 20Z" fill="url(#paint0_linear_7_2088)"/>
<path fill-rule="evenodd" clip-rule="evenodd" d="M63 79V81H48V79H63ZM72 79V81H67V79H72ZM90 75V77H48V75H90ZM96 71V73H48V71H96ZM96 67V69H48V67H96ZM87.3025 63V65H48V63H87.3025Z" fill="#F5F8FF"/>
<path fill-rule="evenodd" clip-rule="evenodd" d="M52.5 39.2953L49.7188 41L50.4014 37.692L48 35.4377L51.203 35.098L52.5 32L53.797 35.098L57 35.4377L54.5986 37.692L55.2811 41L52.5 39.2953Z" fill="#FFC019"/>
<path fill-rule="evenodd" clip-rule="evenodd" d="M62.5 39.2953L59.7188 41L60.4014 37.692L58 35.4377L61.203 35.098L62.5 32L63.797 35.098L67 35.4377L64.5986 37.692L65.2811 41L62.5 39.2953Z" fill="#FFC019"/>
<path fill-rule="evenodd" clip-rule="evenodd" d="M72.5 39.2953L69.7188 41L70.4014 37.692L68 35.4377L71.203 35.098L72.5 32L73.797 35.098L77 35.4377L74.5986 37.692L75.2811 41L72.5 39.2953Z" fill="#FFC019"/>
<path fill-rule="evenodd" clip-rule="evenodd" d="M82.5 39.2953L79.7188 41L80.4014 37.692L78 35.4377L81.203 35.098L82.5 32L83.797 35.098L87 35.4377L84.5986 37.692L85.2811 41L82.5 39.2953Z" fill="white"/>
<path fill-rule="evenodd" clip-rule="evenodd" d="M92.5 39.2953L89.7188 41L90.4014 37.692L88 35.4377L91.203 35.098L92.5 32L93.797 35.098L97 35.4377L94.5986 37.692L95.2811 41L92.5 39.2953Z" fill="white"/>
<g filter="url(#filter1_d_7_2088)">
<path d="M20 10H76C80.4183 10 84 13.5817 84 18V92C84 96.4183 80.4183 100 76 100H35L12 77.5V18C12 13.5817 15.5817 10 20 10Z" fill="black"/>
</g>
<path d="M20 10H76C80.4183 10 84 13.5817 84 18V92C84 96.4183 80.4183 100 76 100H35L12 77.5V18C12 13.5817 15.5817 10 20 10Z" fill="#DEEAFF"/>
<path fill-rule="evenodd" clip-rule="evenodd" d="M45 57.9999C49.2261 63.2825 58.8471 71.684 73.863 83.2042C77.3684 85.8936 78.03 90.9156 75.3406 94.421C73.9481 96.236 71.8452 97.3681 69.5633 97.5311L35 99.9999L12 77.4999V69.5757C12 59.3417 20.2963 51.0454 30.5303 51.0454C36.1595 51.0454 41.4835 53.6042 45 57.9999Z" fill="#DEEAFF"/>
<path fill-rule="evenodd" clip-rule="evenodd" d="M39 69V71H24V69H39ZM48 69V71H43V69H48ZM48 65V67H24V65H48ZM72 61V63H24V61H72ZM72 57V59H24V57H72ZM56 53V55H24V53H56Z" fill="#9757FF"/>
<path fill-rule="evenodd" clip-rule="evenodd" d="M24 42H61V46H24V42Z" fill="#9757FF"/>
<path fill-rule="evenodd" clip-rule="evenodd" d="M28.5 29.2953L25.7188 31L26.4014 27.692L24 25.4377L27.203 25.098L28.5 22L29.797 25.098L33 25.4377L30.5986 27.692L31.2811 31L28.5 29.2953Z" fill="#FFC019"/>
<path fill-rule="evenodd" clip-rule="evenodd" d="M38.5 29.2953L35.7188 31L36.4014 27.692L34 25.4377L37.203 25.098L38.5 22L39.797 25.098L43 25.4377L40.5986 27.692L41.2811 31L38.5 29.2953Z" fill="#FFC019"/>
<path fill-rule="evenodd" clip-rule="evenodd" d="M48.5 29.2953L45.7188 31L46.4014 27.692L44 25.4377L47.203 25.098L48.5 22L49.797 25.098L53 25.4377L50.5986 27.692L51.2811 31L48.5 29.2953Z" fill="#FFC019"/>
<path fill-rule="evenodd" clip-rule="evenodd" d="M58.5 29.2953L55.7188 31L56.4014 27.692L54 25.4377L57.203 25.098L58.5 22L59.797 25.098L63 25.4377L60.5986 27.692L61.2811 31L58.5 29.2953Z" fill="#FFC019"/>
<path fill-rule="evenodd" clip-rule="evenodd" d="M68.5 29.2953L65.7188 31L66.4014 27.692L64 25.4377L67.203 25.098L68.5 22L69.797 25.098L73 25.4377L70.5986 27.692L71.2811 31L68.5 29.2953Z" fill="white"/>
<path fill-rule="evenodd" clip-rule="evenodd" d="M12 77H29C32.3137 77 35 79.6863 35 83V100L12 77Z" fill="url(#paint1_linear_7_2088)"/>
<g filter="url(#filter2_d_7_2088)">
<path d="M57 83.9999C57 90.0749 61.9248 94.9997 67.9999 94.9997C74.075 94.9997 78.9998 90.0749 78.9998 83.9999C78.9998 80.07 76.9032 76.4386 73.4998 74.4737C70.0965 72.5088 65.9033 72.5088 62.5 74.4737C59.0966 76.4386 57 80.07 57 83.9999Z" fill="#FFC837"/>
<path d="M67.9999 92.4613C72.6731 92.4613 76.4615 88.6731 76.4615 83.9999C76.4615 79.3268 72.6731 75.5383 67.9999 75.5383C63.3269 75.5383 59.5383 79.3268 59.5383 83.9999C59.5383 88.6731 63.3269 92.4615 67.9999 92.4615V92.4613ZM67.9999 95C61.9248 95 57 90.075 57 83.9996C57 77.9248 61.9248 73 67.9999 73C74.075 73 79 77.9248 79 83.9999C79 90.075 74.075 95 67.9997 95H67.9999Z" fill="#FFE32B"/>
<path d="M74.049 74.811C77.0318 76.7786 78.9998 80.1593 78.9998 83.9996C78.9998 90.0747 74.075 94.9997 68.0001 94.9997C67.0391 94.9997 66.1069 94.8765 65.2183 94.645L66.2695 92.2842C66.8387 92.4023 67.4186 92.4616 67.9999 92.4613C72.6732 92.4613 76.4615 88.6729 76.4615 83.9996C76.4615 81.1962 75.0982 78.7113 72.998 77.1716L74.049 74.811ZM66.2333 75.723C62.408 76.5355 59.5385 79.9324 59.5385 83.9996C59.5362 85.4828 59.9255 86.9403 60.6672 88.2248L59.4606 90.9343C57.8653 88.9756 56.996 86.5256 57 83.9994C57 78.1125 61.625 73.3058 67.4394 73.0137L66.2333 75.723Z" fill="#FFE32B"/>
<path d="M72.9984 77.1716C71.5493 76.1078 69.7978 75.5356 68.0001 75.5385C67.3943 75.5385 66.8033 75.6023 66.2335 75.7231L67.4394 73.0144C67.6253 73.0046 67.8121 73 68.0001 73C70.1506 72.9966 72.2545 73.6266 74.0492 74.8113L72.9984 77.1716Z" fill="#FFE853"/>
<path d="M67.5085 88.4079L65.7732 89.1198C65.356 89.291 64.8799 89.2331 64.516 88.967C64.152 88.7008 63.9526 88.2647 63.9893 87.8153L64.1364 86.0141C64.1649 85.6662 64.0517 85.3215 63.8227 85.0581L62.6414 83.6998C62.3433 83.357 62.2464 82.8833 62.3859 82.451C62.5255 82.0188 62.8811 81.6911 63.3233 81.5873L65.117 81.1663C65.4519 81.0877 65.7418 80.8792 65.9228 80.5867L66.8986 79.0103C67.1349 78.6287 67.5518 78.3965 68.0007 78.3965C68.4495 78.3965 68.8664 78.6287 69.1027 79.0103L70.0787 80.5869C70.2598 80.8793 70.5497 81.0877 70.8845 81.1663L72.6782 81.5873C73.1204 81.6911 73.476 82.0188 73.6155 82.4511C73.7549 82.8833 73.658 83.3571 73.3599 83.6998L72.1788 85.0581C71.9497 85.3215 71.8365 85.6661 71.8649 86.0141L72.0121 87.8153C72.0488 88.2647 71.8493 88.7008 71.4853 88.967C71.1214 89.2331 70.6453 89.291 70.2282 89.1198L68.4928 88.4076C68.1775 88.2782 67.8239 88.2782 67.5085 88.4076V88.4079Z" fill="#FFF42B"/>
<path d="M65.485 89.238L65.0931 89.3988C64.8208 89.5106 64.5099 89.4729 64.2723 89.2991C64.0347 89.1254 63.9045 88.8406 63.9284 88.5472L64.1508 85.8256C64.1693 85.5983 64.0954 85.3733 63.9457 85.2013L62.1509 83.1372C61.9564 82.9134 61.8932 82.6042 61.9843 82.3221C62.0754 82.04 62.3075 81.8261 62.5961 81.7583L65.2974 81.1241C65.516 81.0728 65.7053 80.9367 65.8235 80.7459L67.2803 78.3928C67.4345 78.1437 67.7066 77.9922 67.9996 77.9922C68.2926 77.9922 68.5647 78.1437 68.719 78.3928L70.1757 80.7456C70.2939 80.9366 70.4832 81.0727 70.7018 81.1241L71.1597 81.2316C68.0207 82.4954 65.7397 85.5722 65.485 89.238Z" fill="#FFFE4F"/>
</g>
<defs>
<filter id="filter0_d_7_2088" x="35" y="20" width="80" height="98" filterUnits="userSpaceOnUse" color-interpolation-filters="sRGB">
<feFlood flood-opacity="0" result="BackgroundImageFix"/>
<feColorMatrix in="SourceAlpha" type="matrix" values="0 0 0 0 0 0 0 0 0 0 0 0 0 0 0 0 0 0 127 0" result="hardAlpha"/>
<feOffset dx="3" dy="4"/>
<feGaussianBlur stdDeviation="2"/>
<feColorMatrix type="matrix" values="0 0 0 0 0.607115 0 0 0 0 0.44585 0 0 0 0 0.8 0 0 0 0.1 0"/>
<feBlend mode="normal" in2="BackgroundImageFix" result="effect1_dropShadow_7_2088"/>
<feBlend mode="normal" in="SourceGraphic" in2="effect1_dropShadow_7_2088" result="shape"/>
</filter>
<filter id="filter1_d_7_2088" x="11" y="10" width="80" height="98" filterUnits="userSpaceOnUse" color-interpolation-filters="sRGB">
<feFlood flood-opacity="0" result="BackgroundImageFix"/>
<feColorMatrix in="SourceAlpha" type="matrix" values="0 0 0 0 0 0 0 0 0 0 0 0 0 0 0 0 0 0 127 0" result="hardAlpha"/>
<feOffset dx="3" dy="4"/>
<feGaussianBlur stdDeviation="2"/>
<feColorMatrix type="matrix" values="0 0 0 0 0.752941 0 0 0 0 0.552941 0 0 0 0 0.992157 0 0 0 0.05 0"/>
<feBlend mode="normal" in2="BackgroundImageFix" result="effect1_dropShadow_7_2088"/>
<feBlend mode="normal" in="SourceGraphic" in2="effect1_dropShadow_7_2088" result="shape"/>
</filter>
<filter id="filter2_d_7_2088" x="57" y="73" width="23" height="24" filterUnits="userSpaceOnUse" color-interpolation-filters="sRGB">
<feFlood flood-opacity="0" result="BackgroundImageFix"/>
<feColorMatrix in="SourceAlpha" type="matrix" values="0 0 0 0 0 0 0 0 0 0 0 0 0 0 0 0 0 0 127 0" result="hardAlpha"/>
<feOffset dx="1" dy="2"/>
<feComposite in2="hardAlpha" operator="out"/>
<feColorMatrix type="matrix" values="0 0 0 0 0.607843 0 0 0 0 0.447059 0 0 0 0 0.8 0 0 0 0.1 0"/>
<feBlend mode="normal" in2="BackgroundImageFix" result="effect1_dropShadow_7_2088"/>
<feBlend mode="normal" in="SourceGraphic" in2="effect1_dropShadow_7_2088" result="shape"/>
</filter>
<linearGradient id="paint0_linear_7_2088" x1="72" y1="20" x2="98.1326" y2="107.338" gradientUnits="userSpaceOnUse">
<stop stop-color="#D1B3FE"/>
<stop offset="1" stop-color="#BB83FD"/>
</linearGradient>
<linearGradient id="paint1_linear_7_2088" x1="35" y1="77" x2="23.5" y2="88.5" gradientUnits="userSpaceOnUse">
<stop stop-color="#814FD3"/>
<stop offset="1" stop-color="#582F9C"/>
</linearGradient>
</defs>
</svg>
