<svg width="120" height="120" viewBox="0 0 120 120" fill="none" xmlns="http://www.w3.org/2000/svg">
<g filter="url(#filter0_d_7_2099)">
<path d="M33 32H96C100.418 32 104 35.5817 104 40V103C104 107.418 100.418 111 96 111H33C28.5817 111 25 107.418 25 103V40C25 35.5817 28.5817 32 33 32Z" fill="black"/>
</g>
<path d="M33 32H96C100.418 32 104 35.5817 104 40V103C104 107.418 100.418 111 96 111H33C28.5817 111 25 107.418 25 103V40C25 35.5817 28.5817 32 33 32Z" fill="url(#paint0_linear_7_2099)"/>
<mask id="mask0_7_2099" style="mask-type:alpha" maskUnits="userSpaceOnUse" x="12" y="20" width="79" height="79">
<path d="M20 20H83C87.4183 20 91 23.5817 91 28V91C91 95.4183 87.4183 99 83 99H20C15.5817 99 12 95.4183 12 91V28C12 23.5817 15.5817 20 20 20Z" fill="white"/>
</mask>
<g mask="url(#mask0_7_2099)">
<g filter="url(#filter1_d_7_2099)">
<path d="M20 20H83C87.4183 20 91 23.5817 91 28V91C91 95.4183 87.4183 99 83 99H20C15.5817 99 12 95.4183 12 91V28C12 23.5817 15.5817 20 20 20Z" fill="black"/>
</g>
<path d="M20 20H83C87.4183 20 91 23.5817 91 28V91C91 95.4183 87.4183 99 83 99H20C15.5817 99 12 95.4183 12 91V28C12 23.5817 15.5817 20 20 20Z" fill="#DEEAFF"/>
<path fill-rule="evenodd" clip-rule="evenodd" d="M12 20H94V32H12V20Z" fill="url(#paint1_linear_7_2099)"/>
</g>
<path d="M22 28C23.1046 28 24 27.1046 24 26C24 24.8954 23.1046 24 22 24C20.8954 24 20 24.8954 20 26C20 27.1046 20.8954 28 22 28Z" fill="white"/>
<path d="M29 28C30.1046 28 31 27.1046 31 26C31 24.8954 30.1046 24 29 24C27.8954 24 27 24.8954 27 26C27 27.1046 27.8954 28 29 28Z" fill="white"/>
<path d="M36 28C37.1046 28 38 27.1046 38 26C38 24.8954 37.1046 24 36 24C34.8954 24 34 24.8954 34 26C34 27.1046 34.8954 28 36 28Z" fill="white"/>
<g filter="url(#filter2_d_7_2099)">
<path d="M94 44C103.941 44 112 35.9411 112 26C112 16.0589 103.941 8 94 8C84.0589 8 76 16.0589 76 26C76 35.9411 84.0589 44 94 44Z" fill="white"/>
<path fill-rule="evenodd" clip-rule="evenodd" d="M112 26C112 35.9411 103.941 44 94 44C84.0589 44 76 35.9411 76 26C76 16.0589 84.0589 8 94 8C103.941 8 112 16.0589 112 26ZM101.667 17H92.3332C91.5973 17 91 17.5595 91 18.2501V18.875H97.9999C99.1027 18.875 100 19.7162 100 20.75V32H101.667C102.403 32 103 31.4399 103 30.7499V18.2501C103 17.5595 102.403 17 101.667 17ZM86.3332 20C85.5967 20 85 20.5595 85 21.2501V33.7499C85 34.4405 85.5967 35 86.3332 35H95.6668C96.4033 35 97 34.4405 97 33.7499V21.2501C97 20.5595 96.4033 20 95.6668 20H86.3332ZM91 31.25L88.3333 27.4994L91 23.75L93.6667 27.4994L91 31.25Z" fill="#FFC019"/>
</g>
<path d="M31 52C34.866 52 38 48.866 38 45C38 41.134 34.866 38 31 38C27.134 38 24 41.134 24 45C24 48.866 27.134 52 31 52Z" fill="white"/>
<path fill-rule="evenodd" clip-rule="evenodd" d="M38 45C38 48.866 34.866 52 31 52C27.134 52 24 48.866 24 45C24 41.134 27.134 38 31 38C34.866 38 38 41.134 38 45ZM31.1402 41.2099L31.2928 41.3463C31.3325 41.3832 31.3715 41.4196 31.41 41.4557C31.5523 41.5887 31.6886 41.7162 31.8353 41.838C31.8679 41.8521 31.9044 41.8521 31.937 41.838C31.9704 41.8469 32.0053 41.8469 32.0387 41.838L32.615 41.2826L32.7084 41.1916C32.7141 41.174 32.7141 41.1547 32.7084 41.137C32.7186 41.1227 32.7242 41.1051 32.7242 41.087C32.7242 41.0688 32.7186 41.0513 32.7084 41.037L31.9709 40.3542C31.9569 40.3408 31.9388 40.3333 31.92 40.3333C31.9012 40.3333 31.8832 40.3408 31.8692 40.3542L31.1233 41.0916C31.1169 41.1122 31.1169 41.1346 31.1233 41.1553C31.1226 41.1751 31.1287 41.1945 31.1402 41.2099ZM32.2692 43.1756C32.0102 43.1778 31.7526 43.1347 31.5065 43.0482C31.2535 42.9796 31.0162 42.8561 30.8092 42.6856C30.6023 42.5149 30.43 42.3007 30.3029 42.056C30.1722 41.7745 30.1306 41.455 30.1843 41.1457C30.184 41.1278 30.1901 41.1106 30.201 41.0972C30.2119 41.0837 30.2271 41.0751 30.2435 41.0729C30.2561 41.0639 30.2708 41.0591 30.2859 41.0591C30.3011 41.0591 30.3158 41.0639 30.3284 41.0729C30.454 41.3922 30.6619 41.6662 30.9277 41.8631C31.1934 42.0598 31.506 42.171 31.8286 42.1834C32.2334 42.218 32.6365 42.0952 32.9643 41.8375C33.0511 41.7746 33.1332 41.7046 33.21 41.6281C33.2501 41.5979 33.2968 41.5791 33.3457 41.5735C33.392 41.5873 33.4334 41.6158 33.4643 41.6555L33.5745 41.8011L33.8881 42.1925L34.0492 42.4018C34.0543 42.4116 34.0571 42.4226 34.0571 42.4338C34.0571 42.4449 34.0543 42.456 34.0492 42.4657C34.0536 42.4756 34.056 42.4864 34.056 42.4975C34.056 42.5085 34.0536 42.5194 34.0492 42.5293L33.7525 42.7204L33.5236 42.8844H33.4643H33.422C33.0636 43.075 32.6691 43.1746 32.2692 43.1756ZM33.9573 43.9667C34.3062 44.394 34.4937 44.946 34.4829 45.5142C34.5363 46.0677 34.4635 46.6269 34.271 47.1436C34.1423 47.4582 33.9311 47.7256 33.6631 47.913C33.3952 48.1006 33.0821 48.2002 32.7622 48.1995C32.5022 48.2001 32.2451 48.1411 32.0079 48.0266C31.7955 47.9162 31.6228 47.7338 31.5164 47.5077C31.3713 47.2275 31.2847 46.9169 31.262 46.5974C31.2574 46.5795 31.2574 46.5606 31.262 46.5428V46.3426C31.2728 46.2466 31.2926 46.152 31.3214 46.0604V45.9421C31.3222 45.9315 31.3253 45.9213 31.3303 45.9122C31.3352 45.903 31.3419 45.8952 31.35 45.8891C31.358 45.883 31.3673 45.879 31.3769 45.8771C31.3866 45.8752 31.3965 45.8756 31.4061 45.8783C31.4227 45.8781 31.4388 45.8846 31.4513 45.8963C31.4637 45.908 31.4718 45.9244 31.4739 45.9421C31.4691 45.9752 31.4691 46.0089 31.4739 46.0422C31.5008 46.2192 31.5794 46.3824 31.6981 46.5084C31.8169 46.6343 31.97 46.7165 32.135 46.7431C32.2224 46.7529 32.3104 46.7529 32.3978 46.7431C32.6513 46.745 32.9011 46.6773 33.1236 46.5468C33.3459 46.4162 33.5338 46.2269 33.6691 45.9967C33.805 45.717 33.8554 45.3985 33.8132 45.0863C33.7952 44.9289 33.7641 44.7736 33.72 44.6221C33.682 44.4842 33.6039 44.363 33.4971 44.2762C33.3904 44.1894 33.2606 44.1416 33.1267 44.1397C32.9715 44.1406 32.8228 44.2059 32.7114 44.3217C32.5299 44.5086 32.3679 44.7162 32.2283 44.9407C32.1247 45.1261 31.9858 45.2861 31.8208 45.41C31.6558 45.5339 31.4683 45.619 31.2705 45.6599C31.1099 45.6781 30.948 45.6781 30.7874 45.6599H30.5925C30.6518 45.7236 30.6518 45.7782 30.6518 45.8328C30.7687 46.1287 30.8209 46.4495 30.8043 46.7704C30.788 47.0876 30.7101 47.3977 30.5754 47.6806C30.4958 47.8365 30.388 47.974 30.2585 48.0848C30.1291 48.1957 29.9804 48.2781 29.8212 48.327C29.5285 48.4445 29.2183 48.5031 28.9058 48.4999C28.5901 48.5001 28.277 48.4384 27.982 48.3179C27.6563 48.1637 27.3669 47.9335 27.1344 47.6442C26.688 47.1033 26.4122 46.4247 26.3462 45.7054C26.329 45.5025 26.329 45.2983 26.3462 45.0954V44.8406V44.786C26.3541 44.7692 26.3662 44.7552 26.3812 44.7457C26.3962 44.736 26.4134 44.731 26.4309 44.7313C26.4463 44.7349 26.4605 44.7428 26.4724 44.7538C26.4843 44.765 26.4933 44.7792 26.4987 44.7951L26.5495 45.0226C26.5801 45.1799 26.6198 45.3349 26.6682 45.4868C26.7931 45.9725 27.0291 46.4168 27.3547 46.7795C27.5868 47.0215 27.8828 47.1804 28.2023 47.2346C28.562 47.3475 28.9443 47.3475 29.3041 47.2346C29.541 47.1383 29.749 46.9747 29.9059 46.7613C29.9731 46.6609 30.0146 46.5434 30.0265 46.4205C30.0384 46.2976 30.0202 46.1734 29.9737 46.0604C29.929 45.9403 29.8535 45.8365 29.756 45.7607C29.6585 45.685 29.543 45.6405 29.4228 45.6326C29.1641 45.5868 28.8988 45.6118 28.6515 45.7054C28.6297 45.7145 28.6055 45.7145 28.5837 45.7054C28.58 45.6968 28.578 45.6875 28.578 45.6781C28.578 45.6686 28.58 45.6593 28.5837 45.6508L28.2193 44.3399V44.258C28.2411 44.2489 28.2652 44.2489 28.287 44.258H28.4142L28.6346 44.3308C28.9155 44.4075 29.2117 44.3883 29.4822 44.2762C29.7109 44.1761 29.855 44.0487 29.855 43.8484C29.8704 43.7903 29.8661 43.7281 29.8429 43.6732C29.8196 43.6181 29.7789 43.5738 29.728 43.548C29.5577 43.4399 29.3657 43.3769 29.1682 43.3642C28.9707 43.3516 28.7733 43.3897 28.5922 43.4752C28.4227 43.548 28.2616 43.63 28.1091 43.7119L27.8548 43.8484H27.787C27.7716 43.8625 27.7521 43.8702 27.7319 43.8702C27.7116 43.8702 27.6921 43.8625 27.6767 43.8484L27.1682 42.8289C27.1641 42.8078 27.1641 42.7861 27.1682 42.7651L27.2107 42.7196L27.3293 42.6559C27.4105 42.6032 27.4956 42.5576 27.5835 42.5194C28.0648 42.2562 28.6049 42.1428 29.1431 42.1917C29.3665 42.2226 29.5875 42.2713 29.8042 42.3373C30.0285 42.3839 30.2327 42.5078 30.3856 42.6901C30.5386 42.8724 30.632 43.1032 30.6518 43.3478C30.6955 43.655 30.6477 43.969 30.5153 44.2453C30.3828 44.5215 30.1725 44.7458 29.9144 44.8861L29.7449 45.0044H29.8212C29.9643 45.0699 30.1117 45.1246 30.2618 45.1684C30.3451 45.1846 30.4309 45.1763 30.51 45.1442C30.5891 45.1121 30.6586 45.0575 30.7111 44.9862C30.8331 44.848 30.9435 44.6988 31.0416 44.5402C31.1001 44.462 31.1539 44.3799 31.2028 44.2944C31.2713 44.1734 31.3478 44.0578 31.4316 43.9485C31.5717 43.7646 31.7473 43.6156 31.9463 43.5119C32.1454 43.4081 32.363 43.3521 32.5842 43.3478C32.8425 43.3262 33.1018 43.371 33.3406 43.4787C33.5794 43.5863 33.7908 43.7537 33.9573 43.9667Z" fill="#FFC019"/>
<path fill-rule="evenodd" clip-rule="evenodd" d="M58 47V49H42V47H58ZM68 41V43H42V41H68Z" fill="#9757FF"/>
<path fill-rule="evenodd" clip-rule="evenodd" d="M58 67V69H42V67H58ZM79 61V63H42V61H79Z" fill="#9757FF"/>
<path fill-rule="evenodd" clip-rule="evenodd" d="M58 87V89H42V87H58ZM79 81V83H42V81H79Z" fill="#9757FF"/>
<path d="M31 72C34.866 72 38 68.866 38 65C38 61.134 34.866 58 31 58C27.134 58 24 61.134 24 65C24 68.866 27.134 72 31 72Z" fill="white"/>
<path fill-rule="evenodd" clip-rule="evenodd" d="M38 65C38 68.866 34.866 72 31 72C27.134 72 24 68.866 24 65C24 61.134 27.134 58 31 58C34.866 58 38 61.134 38 65ZM32.5575 63.4425L31 60.3333L29.4425 63.4425L26.3333 65L29.4425 66.5575L31 69.6667L32.5575 66.5575L35.6667 65L32.5575 63.4425ZM28.0833 62.6667C28.4055 62.6667 28.6667 62.4055 28.6667 62.0833C28.6667 61.7612 28.4055 61.5 28.0833 61.5C27.7612 61.5 27.5 61.7612 27.5 62.0833C27.5 62.4055 27.7612 62.6667 28.0833 62.6667ZM28.6667 67.9167C28.6667 68.2388 28.4055 68.5 28.0833 68.5C27.7612 68.5 27.5 68.2388 27.5 67.9167C27.5 67.5946 27.7612 67.3333 28.0833 67.3333C28.4055 67.3333 28.6667 67.5946 28.6667 67.9167ZM33.9167 62.6667C34.2388 62.6667 34.5 62.4055 34.5 62.0833C34.5 61.7612 34.2388 61.5 33.9167 61.5C33.5946 61.5 33.3333 61.7612 33.3333 62.0833C33.3333 62.4055 33.5946 62.6667 33.9167 62.6667ZM34.5 67.9167C34.5 68.2388 34.2388 68.5 33.9167 68.5C33.5946 68.5 33.3333 68.2388 33.3333 67.9167C33.3333 67.5946 33.5946 67.3333 33.9167 67.3333C34.2388 67.3333 34.5 67.5946 34.5 67.9167Z" fill="#FFC019"/>
<path d="M31 92C34.866 92 38 88.866 38 85C38 81.134 34.866 78 31 78C27.134 78 24 81.134 24 85C24 88.866 27.134 92 31 92Z" fill="white"/>
<path fill-rule="evenodd" clip-rule="evenodd" d="M38 85C38 88.866 34.866 92 31 92C27.134 92 24 88.866 24 85C24 81.134 27.134 78 31 78C34.866 78 38 81.134 38 85ZM30.2222 80.1388C30.2222 79.8167 30.4834 79.5555 30.8055 79.5555C31.1277 79.5555 31.3889 79.8167 31.3889 80.1388V84.1574H31.7778V80.9167C31.7778 80.5946 32.0389 80.3333 32.3611 80.3333C32.6833 80.3333 32.9445 80.5946 32.9445 80.9167V85.3889H33.3333V85C33.3333 84.1409 34.0298 83.4445 34.8889 83.4445V87.3333H34.8652C34.6502 89.0833 33.0016 90.4444 31 90.4444C28.9984 90.4444 27.3498 89.0833 27.1348 87.3333H27.1112V85H27.1201V83.25C27.1201 82.9279 27.3814 82.6667 27.7035 82.6667C28.0257 82.6667 28.2868 82.9279 28.2868 83.25V85H28.6667V80.9167C28.6667 80.5946 28.9279 80.3333 29.25 80.3333C29.5721 80.3333 29.8333 80.5946 29.8333 80.9167V84.1574H30.2222V80.1388ZM31 88.5C31.6444 88.5 32.1667 87.9777 32.1667 87.3333C32.1667 86.689 31.6444 86.1667 31 86.1667C30.3556 86.1667 29.8333 86.689 29.8333 87.3333C29.8333 87.9777 30.3556 88.5 31 88.5Z" fill="#FFC019"/>
<defs>
<filter id="filter0_d_7_2099" x="24" y="32" width="87" height="87" filterUnits="userSpaceOnUse" color-interpolation-filters="sRGB">
<feFlood flood-opacity="0" result="BackgroundImageFix"/>
<feColorMatrix in="SourceAlpha" type="matrix" values="0 0 0 0 0 0 0 0 0 0 0 0 0 0 0 0 0 0 127 0" result="hardAlpha"/>
<feOffset dx="3" dy="4"/>
<feGaussianBlur stdDeviation="2"/>
<feColorMatrix type="matrix" values="0 0 0 0 0.607115 0 0 0 0 0.44585 0 0 0 0 0.8 0 0 0 0.1 0"/>
<feBlend mode="normal" in2="BackgroundImageFix" result="effect1_dropShadow_7_2099"/>
<feBlend mode="normal" in="SourceGraphic" in2="effect1_dropShadow_7_2099" result="shape"/>
</filter>
<filter id="filter1_d_7_2099" x="11" y="20" width="87" height="87" filterUnits="userSpaceOnUse" color-interpolation-filters="sRGB">
<feFlood flood-opacity="0" result="BackgroundImageFix"/>
<feColorMatrix in="SourceAlpha" type="matrix" values="0 0 0 0 0 0 0 0 0 0 0 0 0 0 0 0 0 0 127 0" result="hardAlpha"/>
<feOffset dx="3" dy="4"/>
<feGaussianBlur stdDeviation="2"/>
<feColorMatrix type="matrix" values="0 0 0 0 0.752941 0 0 0 0 0.552941 0 0 0 0 0.992157 0 0 0 0.05 0"/>
<feBlend mode="normal" in2="BackgroundImageFix" result="effect1_dropShadow_7_2099"/>
<feBlend mode="normal" in="SourceGraphic" in2="effect1_dropShadow_7_2099" result="shape"/>
</filter>
<filter id="filter2_d_7_2099" x="76" y="8" width="37" height="38" filterUnits="userSpaceOnUse" color-interpolation-filters="sRGB">
<feFlood flood-opacity="0" result="BackgroundImageFix"/>
<feColorMatrix in="SourceAlpha" type="matrix" values="0 0 0 0 0 0 0 0 0 0 0 0 0 0 0 0 0 0 127 0" result="hardAlpha"/>
<feOffset dx="1" dy="2"/>
<feColorMatrix type="matrix" values="0 0 0 0 0.607843 0 0 0 0 0.447059 0 0 0 0 0.8 0 0 0 0.1 0"/>
<feBlend mode="normal" in2="BackgroundImageFix" result="effect1_dropShadow_7_2099"/>
<feBlend mode="normal" in="SourceGraphic" in2="effect1_dropShadow_7_2099" result="shape"/>
</filter>
<linearGradient id="paint0_linear_7_2099" x1="64.5" y1="32" x2="94.0474" y2="111" gradientUnits="userSpaceOnUse">
<stop stop-color="#D1B3FE"/>
<stop offset="1" stop-color="#BB83FD"/>
</linearGradient>
<linearGradient id="paint1_linear_7_2099" x1="21.6681" y1="26" x2="67.0902" y2="26" gradientUnits="userSpaceOnUse">
<stop stop-color="#8E5DC2"/>
<stop offset="1" stop-color="#6035A6"/>
</linearGradient>
</defs>
</svg>
