<svg width="160" height="161" viewBox="0 0 160 161" fill="none" xmlns="http://www.w3.org/2000/svg">
<g clip-path="url(#clip0_7_2259)">
<path fill-rule="evenodd" clip-rule="evenodd" d="M139.246 30.6257L142.589 28.7975C142.871 28.6437 143.102 28.4122 143.256 28.1306L145.084 24.7876C145.206 24.5653 145.416 24.5413 145.5 24.5413C145.584 24.5413 145.794 24.5653 145.916 24.7876L147.874 28.3682C147.943 28.4945 148.047 28.5984 148.173 28.6673L151.754 30.6257C151.976 30.7473 152 30.9569 152 31.0413C152 31.1257 151.976 31.3352 151.754 31.4568L148.411 33.2851C148.129 33.4389 147.898 33.6703 147.744 33.9519L145.916 37.2949C145.794 37.5172 145.585 37.5413 145.5 37.5413C145.416 37.5413 145.206 37.5172 145.085 37.2949L143.256 33.9519C143.102 33.6704 142.871 33.4389 142.589 33.2852L139.246 31.4568C139.024 31.3352 139 31.1257 139 31.0413C139 30.9569 139.024 30.7473 139.246 30.6257Z" fill="#DACCFF"/>
<path fill-rule="evenodd" clip-rule="evenodd" d="M11.1137 25.3495L12.6566 24.5057C12.7866 24.4347 12.8934 24.3278 12.9643 24.1979L13.8082 22.655C13.8643 22.5524 13.961 22.5413 14 22.5413C14.039 22.5413 14.1357 22.5524 14.1918 22.655L15.0956 24.3075C15.1274 24.3659 15.1753 24.4138 15.2336 24.4456L16.8863 25.3495C16.9889 25.4056 17 25.5023 17 25.5413C17 25.5802 16.9889 25.6769 16.8863 25.733L15.3435 26.5769C15.2135 26.6479 15.1067 26.7547 15.0357 26.8846L14.1919 28.4276C14.1358 28.5302 14.039 28.5413 14.0001 28.5413C13.9611 28.5413 13.8644 28.5302 13.8083 28.4276L12.9644 26.8846C12.8934 26.7547 12.7866 26.6479 12.6566 26.5769L11.1137 25.733C11.0111 25.6769 11 25.5802 11 25.5413C11 25.5023 11.0111 25.4056 11.1137 25.3495Z" fill="#DACCFF"/>
<path fill-rule="evenodd" clip-rule="evenodd" d="M141.114 139.349L142.657 138.506C142.787 138.435 142.893 138.328 142.964 138.198L143.808 136.655C143.864 136.552 143.961 136.541 144 136.541C144.039 136.541 144.136 136.552 144.192 136.655L145.096 138.308C145.127 138.366 145.175 138.414 145.234 138.446L146.886 139.349C146.989 139.406 147 139.502 147 139.541C147 139.58 146.989 139.677 146.886 139.733L145.343 140.577C145.214 140.648 145.107 140.755 145.036 140.885L144.192 142.428C144.136 142.53 144.039 142.541 144 142.541C143.961 142.541 143.864 142.53 143.808 142.428L142.964 140.885C142.893 140.755 142.787 140.648 142.657 140.577L141.114 139.733C141.011 139.677 141 139.58 141 139.541C141 139.502 141.011 139.406 141.114 139.349Z" fill="#DACCFF"/>
<path fill-rule="evenodd" clip-rule="evenodd" d="M8.24635 146.626L11.5894 144.797C11.8709 144.644 12.1023 144.412 12.256 144.131L14.0845 140.788C14.206 140.565 14.4156 140.541 14.5 140.541C14.5844 140.541 14.794 140.565 14.9155 140.788L16.8738 144.368C16.9427 144.495 17.0465 144.598 17.1729 144.667L20.7537 146.626C20.9759 146.747 21 146.957 21 147.041C21 147.126 20.9759 147.335 20.7537 147.457L17.4108 149.285C17.1293 149.439 16.8978 149.67 16.744 149.952L14.9157 153.295C14.7941 153.517 14.5846 153.541 14.5002 153.541C14.4158 153.541 14.2062 153.517 14.0847 153.295L12.2562 149.952C12.1024 149.67 11.8709 149.439 11.5894 149.285L8.24635 147.457C8.02407 147.335 8 147.126 8 147.041C8 146.957 8.02407 146.747 8.24635 146.626Z" fill="#DACCFF"/>
<path d="M80 147.541C117.003 147.541 147 117.544 147 80.5413C147 43.5382 117.003 13.5413 80 13.5413C42.9969 13.5413 13 43.5382 13 80.5413C13 117.544 42.9969 147.541 80 147.541Z" fill="#DACCFF"/>
<path fill-rule="evenodd" clip-rule="evenodd" d="M119.5 64.5413C124.76 64.5413 129 68.2244 129 73.2613V123.421C129 128.458 124.736 132.541 119.476 132.541H38.5238C33.264 132.541 29 128.458 29 123.421V56.5413" fill="#DEEAFF"/>
<path d="M119.5 64.5413C124.76 64.5413 129 68.2244 129 73.2613V123.421C129 128.458 124.736 132.541 119.476 132.541H38.5238C33.264 132.541 29 128.458 29 123.421V56.5413" stroke="#354053"/>
<path fill-rule="evenodd" clip-rule="evenodd" d="M49 67.5413H120C123.314 67.5413 126 70.2276 126 73.5413V123.541C126 126.855 123.314 129.541 120 129.541H49V67.5413Z" stroke="#354053" stroke-opacity="0.4" stroke-linecap="round" stroke-dasharray="3 3"/>
<path fill-rule="evenodd" clip-rule="evenodd" d="M120 64.5413H36.5C32.3579 64.5413 29 61.1834 29 57.0413C29 52.8991 32.3579 49.5413 36.5 49.5413H114C117.314 49.5413 120 52.2276 120 55.5413" fill="#7C74B3"/>
<path d="M120 64.5413H36.5C32.3579 64.5413 29 61.1834 29 57.0413C29 52.8991 32.3579 49.5413 36.5 49.5413H114C117.314 49.5413 120 52.2276 120 55.5413" stroke="#354053"/>
<path d="M45.5 65.0413V131.541" stroke="#354053"/>
<path d="M55.3656 34.1904C37.5435 29.5684 22.3757 31.616 15.1156 41.2506C2.36185 58.1754 18.84 92.1038 51.9205 117.032C85.0011 141.96 122.157 148.448 134.911 131.523C141.206 123.169 140.379 110.674 133.951 97.1622" stroke="#354053" stroke-width="2"/>
<path fill-rule="evenodd" clip-rule="evenodd" d="M55.4404 27.0788L64.1794 37.8442L51.0795 39.919L55.4404 27.0788Z" fill="#354053"/>
<g filter="url(#filter0_d_7_2259)">
<path d="M110.5 87.5413H134C135.105 87.5413 136 88.4367 136 89.5413V106.541C136 107.646 135.105 108.541 134 108.541H110.5C104.701 108.541 100 103.84 100 98.0413C100 92.2423 104.701 87.5413 110.5 87.5413Z" fill="black"/>
</g>
<path d="M110.5 87.5413H134C135.105 87.5413 136 88.4367 136 89.5413V106.541C136 107.646 135.105 108.541 134 108.541H110.5C104.701 108.541 100 103.84 100 98.0413C100 92.2423 104.701 87.5413 110.5 87.5413Z" fill="#B486FF"/>
<path d="M134 90.5413C134 89.989 133.552 89.5413 133 89.5413C132.448 89.5413 132 89.989 132 90.5413V105.541C132 106.094 132.448 106.541 133 106.541C133.552 106.541 134 106.094 134 105.541V90.5413Z" fill="#F7F3FF"/>
<path d="M136 103.541V106.541C136 107.646 135.105 108.541 134 108.541H110.5C104.701 108.541 100 103.84 100 98.0413" stroke="#354053"/>
<path d="M110.5 103.541C113.538 103.541 116 101.079 116 98.0413C116 95.0037 113.538 92.5413 110.5 92.5413C107.462 92.5413 105 95.0037 105 98.0413C105 101.079 107.462 103.541 110.5 103.541Z" fill="#F7F3FF" stroke="#965EFB"/>
<path fill-rule="evenodd" clip-rule="evenodd" d="M81.4707 33.2492L104.205 64.5409H36.699L80.0738 33.028C80.5207 32.7033 81.146 32.8024 81.4707 33.2492Z" fill="#78A017" stroke="#354053"/>
<path fill-rule="evenodd" clip-rule="evenodd" d="M94.4707 33.2492L117.205 64.5409H49.699L93.0738 33.028C93.5207 32.7033 94.146 32.8024 94.4707 33.2492Z" fill="#8ACC1A" stroke="#354053"/>
<path fill-rule="evenodd" clip-rule="evenodd" d="M88.644 45.4104C90.088 47.3979 92.8698 47.8385 94.8573 46.3945C95.0401 46.2617 95.2098 46.1176 95.3662 45.9638L106.754 61.6381C106.56 61.7393 106.37 61.8562 106.187 61.989C105.298 62.6354 104.718 63.5498 104.479 64.541L62.313 64.5404L88.644 45.4104Z" fill="#78A017" stroke="#354053"/>
<path fill-rule="evenodd" clip-rule="evenodd" d="M32.3338 59.6241L119.691 59.5242L120 59.5412V64.5412L36.5 64.6241C32.8421 64.6241 29.7957 62.18 29.1335 58.946C30.1205 59.3832 31.201 59.6241 32.3338 59.6241Z" fill="#5B3999" fill-opacity="0.4"/>
</g>
<defs>
<filter id="filter0_d_7_2259" x="94" y="86.5413" width="44" height="29" filterUnits="userSpaceOnUse" color-interpolation-filters="sRGB">
<feFlood flood-opacity="0" result="BackgroundImageFix"/>
<feColorMatrix in="SourceAlpha" type="matrix" values="0 0 0 0 0 0 0 0 0 0 0 0 0 0 0 0 0 0 127 0" result="hardAlpha"/>
<feOffset dx="-2" dy="3"/>
<feGaussianBlur stdDeviation="2"/>
<feColorMatrix type="matrix" values="0 0 0 0 0.5435 0 0 0 0 0.4875 0 0 0 0 0.75 0 0 0 0.6 0"/>
<feBlend mode="normal" in2="BackgroundImageFix" result="effect1_dropShadow_7_2259"/>
<feBlend mode="normal" in="SourceGraphic" in2="effect1_dropShadow_7_2259" result="shape"/>
</filter>
<clipPath id="clip0_7_2259">
<rect width="160" height="160" fill="white" transform="translate(0 0.54126)"/>
</clipPath>
</defs>
</svg>
