<svg width="112" height="37" viewBox="0 0 112 37" fill="none" xmlns="http://www.w3.org/2000/svg">
<path d="M19.0768 3.93994H26.3276V5.2431H23.4799V12.5553H21.9119V5.2431H19.0768V3.93994Z" fill="#222222"/>
<path d="M26.0136 6.317H27.3559V7.52363H27.381C27.4228 7.3547 27.5023 7.1898 27.6194 7.02891C27.7448 6.86803 27.8912 6.72323 28.0584 6.59453C28.234 6.45778 28.4264 6.34918 28.6355 6.26874C28.8445 6.1883 29.0578 6.14807 29.2752 6.14807C29.4425 6.14807 29.5554 6.1521 29.6139 6.16014C29.6809 6.16818 29.7478 6.17623 29.8147 6.18427V7.51157C29.7143 7.49548 29.6098 7.48341 29.501 7.47537C29.4007 7.45928 29.3003 7.45124 29.2 7.45124C28.9574 7.45124 28.7275 7.4995 28.51 7.59603C28.3009 7.68452 28.117 7.82127 27.9581 8.00628C27.7992 8.18326 27.6737 8.40447 27.5817 8.66993C27.4897 8.93539 27.4437 9.24107 27.4437 9.58697V12.5553H26.0136V6.317Z" fill="#222222"/>
<path d="M36.1191 12.5553H34.7141V11.6865H34.689C34.5134 12.0002 34.25 12.2536 33.8987 12.4467C33.5558 12.6317 33.2046 12.7242 32.845 12.7242C31.9919 12.7242 31.3731 12.5231 30.9884 12.1209C30.612 11.7106 30.4239 11.0953 30.4239 10.2747V6.317H31.8539V10.142C31.8539 10.689 31.9627 11.0751 32.1801 11.3004C32.3975 11.5256 32.7028 11.6382 33.0959 11.6382C33.3969 11.6382 33.6478 11.594 33.8485 11.5055C34.0493 11.417 34.2123 11.3004 34.3378 11.1556C34.4632 11.0027 34.551 10.8218 34.6012 10.6126C34.6598 10.4035 34.689 10.1782 34.689 9.93689V6.317H36.1191V12.5553Z" fill="#222222"/>
<path d="M38.7061 10.5523C38.7479 10.9545 38.9068 11.236 39.1827 11.3969C39.4587 11.5578 39.7891 11.6382 40.1738 11.6382C40.3076 11.6382 40.4581 11.6302 40.6254 11.6141C40.801 11.59 40.9641 11.5498 41.1146 11.4934C41.2652 11.4371 41.3864 11.3567 41.4784 11.2521C41.5788 11.1395 41.6248 10.9947 41.6164 10.8177C41.608 10.6408 41.5411 10.496 41.4157 10.3833C41.2902 10.2707 41.1272 10.1822 40.9264 10.1179C40.7341 10.0455 40.5125 9.98516 40.2616 9.93689C40.0107 9.88863 39.7556 9.83634 39.4964 9.78003C39.2287 9.72372 38.9695 9.65535 38.7186 9.5749C38.4761 9.49446 38.2544 9.38586 38.0537 9.24911C37.8614 9.11236 37.7067 8.93941 37.5896 8.73026C37.4725 8.51307 37.414 8.24761 37.414 7.93389C37.414 7.59603 37.4976 7.31448 37.6648 7.08925C37.8405 6.85596 38.0579 6.67095 38.3172 6.5342C38.5848 6.3894 38.8775 6.28885 39.1953 6.23254C39.5215 6.17623 39.8309 6.14807 40.1236 6.14807C40.4581 6.14807 40.7759 6.18427 41.077 6.25667C41.3864 6.32103 41.6624 6.42962 41.9049 6.58246C42.1558 6.7353 42.3607 6.93641 42.5196 7.18578C42.6869 7.4271 42.7914 7.72072 42.8332 8.06662H41.3404C41.2735 7.7368 41.1146 7.51559 40.8637 7.40297C40.6212 7.29035 40.341 7.23404 40.0232 7.23404C39.9229 7.23404 39.8016 7.24209 39.6594 7.25817C39.5256 7.27426 39.396 7.30644 39.2706 7.3547C39.1535 7.39493 39.0531 7.45928 38.9695 7.54776C38.8859 7.62821 38.844 7.7368 38.844 7.87356C38.844 8.04248 38.9026 8.17923 39.0197 8.28381C39.1451 8.38838 39.304 8.47687 39.4964 8.54927C39.6971 8.61362 39.9229 8.66993 40.1738 8.7182C40.4247 8.76646 40.6839 8.81875 40.9515 8.87506C41.2108 8.93137 41.4659 8.99974 41.7168 9.08019C41.9677 9.16063 42.1893 9.26922 42.3816 9.40598C42.5823 9.54273 42.7412 9.71568 42.8583 9.92483C42.9838 10.134 43.0465 10.3914 43.0465 10.6971C43.0465 11.0671 42.9587 11.3808 42.7831 11.6382C42.6074 11.8957 42.3774 12.1048 42.0931 12.2657C41.8171 12.4266 41.5077 12.5432 41.1648 12.6156C40.8219 12.688 40.4832 12.7242 40.1487 12.7242C39.7389 12.7242 39.3584 12.68 39.0071 12.5915C38.6642 12.503 38.3632 12.3703 38.1039 12.1933C37.853 12.0083 37.6523 11.783 37.5018 11.5176C37.3596 11.2441 37.2843 10.9223 37.276 10.5523H38.7061Z" fill="#222222"/>
<path d="M43.48 6.317H44.5588V4.44673H45.9889V6.317H47.281V7.34264H45.9889V10.6729C45.9889 10.8177 45.9931 10.9424 46.0014 11.047C46.0182 11.1516 46.0474 11.2401 46.0892 11.3125C46.1394 11.3848 46.2105 11.4412 46.3025 11.4814C46.3945 11.5136 46.5199 11.5296 46.6788 11.5296C46.7792 11.5296 46.8796 11.5296 46.9799 11.5296C47.0803 11.5216 47.1806 11.5055 47.281 11.4814V12.5432C47.1221 12.5593 46.9674 12.5754 46.8168 12.5915C46.6663 12.6076 46.5116 12.6156 46.3527 12.6156C45.9763 12.6156 45.6711 12.5834 45.4369 12.5191C45.2111 12.4467 45.0313 12.3461 44.8975 12.2174C44.7721 12.0807 44.6842 11.9117 44.6341 11.7106C44.5923 11.5095 44.5672 11.2803 44.5588 11.0229V7.34264H43.48V6.317Z" fill="#222222"/>
<path d="M48.3474 6.317H49.7022V7.16164H49.7273C49.928 6.79965 50.2082 6.54224 50.5678 6.3894C50.9274 6.22852 51.3163 6.14807 51.7344 6.14807C52.2446 6.14807 52.6878 6.23656 53.0641 6.41353C53.4488 6.58246 53.7666 6.81977 54.0175 7.12544C54.2684 7.42308 54.4566 7.773 54.582 8.17521C54.7075 8.57742 54.7702 9.00779 54.7702 9.46631C54.7702 9.8846 54.7117 10.2908 54.5946 10.685C54.4859 11.0792 54.3144 11.4291 54.0803 11.7348C53.8545 12.0324 53.5659 12.2737 53.2147 12.4587C52.8634 12.6357 52.4495 12.7242 51.9728 12.7242C51.7637 12.7242 51.5546 12.7041 51.3455 12.6639C51.1365 12.6317 50.9357 12.5754 50.7434 12.4949C50.551 12.4145 50.3712 12.314 50.204 12.1933C50.0451 12.0646 49.9113 11.9158 49.8025 11.7468H49.7775V14.8599H48.3474V6.317ZM53.3401 9.44217C53.3401 9.16063 53.3025 8.88712 53.2272 8.62167C53.152 8.35621 53.0391 8.12293 52.8885 7.92182C52.738 7.71267 52.5498 7.54777 52.324 7.4271C52.0982 7.2984 51.839 7.23404 51.5462 7.23404C50.9441 7.23404 50.4883 7.43515 50.1789 7.83736C49.8778 8.23957 49.7273 8.77451 49.7273 9.44217C49.7273 9.7559 49.7649 10.0495 49.8402 10.323C49.9238 10.5885 50.0451 10.8177 50.204 11.0108C50.3629 11.2039 50.551 11.3567 50.7685 11.4693C50.9943 11.5819 51.2535 11.6382 51.5462 11.6382C51.8724 11.6382 52.1484 11.5739 52.3742 11.4452C52.6 11.3165 52.784 11.1516 52.9262 10.9505C53.0767 10.7413 53.1812 10.508 53.2398 10.2506C53.3067 9.98516 53.3401 9.71568 53.3401 9.44217Z" fill="#222222"/>
<path d="M56.0162 3.93994H57.4463V5.2431H56.0162V3.93994ZM56.0162 6.317H57.4463V12.5553H56.0162V6.317Z" fill="#222222"/>
<path d="M59.0421 3.93994H60.4722V12.5553H59.0421V3.93994Z" fill="#222222"/>
<path d="M65.0035 12.7242C64.485 12.7242 64.0208 12.6438 63.611 12.4829C63.2096 12.314 62.8667 12.0847 62.5824 11.7951C62.3064 11.5055 62.0931 11.1596 61.9426 10.7574C61.8004 10.3552 61.7293 9.91276 61.7293 9.43011C61.7293 8.9555 61.8004 8.51709 61.9426 8.11488C62.0931 7.71267 62.3064 7.36677 62.5824 7.07718C62.8667 6.78759 63.2096 6.56235 63.611 6.40147C64.0208 6.23254 64.485 6.14807 65.0035 6.14807C65.522 6.14807 65.982 6.23254 66.3834 6.40147C66.7932 6.56235 67.1361 6.78759 67.4121 7.07718C67.6964 7.36677 67.9097 7.71267 68.0518 8.11488C68.2024 8.51709 68.2776 8.9555 68.2776 9.43011C68.2776 9.91276 68.2024 10.3552 68.0518 10.7574C67.9097 11.1596 67.6964 11.5055 67.4121 11.7951C67.1361 12.0847 66.7932 12.314 66.3834 12.4829C65.982 12.6438 65.522 12.7242 65.0035 12.7242ZM65.0035 11.6382C65.3213 11.6382 65.5973 11.5739 65.8314 11.4452C66.0656 11.3165 66.258 11.1475 66.4085 10.9384C66.559 10.7292 66.6677 10.496 66.7346 10.2386C66.8099 9.97309 66.8475 9.70361 66.8475 9.43011C66.8475 9.16465 66.8099 8.89919 66.7346 8.63373C66.6677 8.36827 66.559 8.13499 66.4085 7.93389C66.258 7.72474 66.0656 7.55581 65.8314 7.4271C65.5973 7.2984 65.3213 7.23404 65.0035 7.23404C64.6857 7.23404 64.4097 7.2984 64.1755 7.4271C63.9414 7.55581 63.749 7.72474 63.5985 7.93389C63.448 8.13499 63.3351 8.36827 63.2598 8.63373C63.1929 8.89919 63.1594 9.16465 63.1594 9.43011C63.1594 9.70361 63.1929 9.97309 63.2598 10.2386C63.3351 10.496 63.448 10.7292 63.5985 10.9384C63.749 11.1475 63.9414 11.3165 64.1755 11.4452C64.4097 11.5739 64.6857 11.6382 65.0035 11.6382Z" fill="#222222"/>
<path d="M68.8142 6.317H69.893V4.44673H71.3231V6.317H72.6152V7.34264H71.3231V10.6729C71.3231 10.8177 71.3273 10.9424 71.3357 11.047C71.3524 11.1516 71.3817 11.2401 71.4235 11.3125C71.4737 11.3848 71.5448 11.4412 71.6367 11.4814C71.7287 11.5136 71.8542 11.5296 72.0131 11.5296C72.1134 11.5296 72.2138 11.5296 72.3142 11.5296C72.4145 11.5216 72.5149 11.5055 72.6152 11.4814V12.5432C72.4563 12.5593 72.3016 12.5754 72.1511 12.5915C72.0005 12.6076 71.8458 12.6156 71.6869 12.6156C71.3106 12.6156 71.0053 12.5834 70.7712 12.5191C70.5454 12.4467 70.3656 12.3461 70.2317 12.2174C70.1063 12.0807 70.0185 11.9117 69.9683 11.7106C69.9265 11.5095 69.9014 11.2803 69.893 11.0229V7.34264H68.8142V6.317Z" fill="#222222"/>
<path d="M10.205 10.9251L13.1685 10.1842L14.407 13.95L10.205 10.9251ZM17.0255 6.05771H11.8084L10.205 1.20996L8.60158 6.05771H3.38446L7.60693 9.06239L6.00354 13.9101L10.226 10.9055L12.8241 9.06239L17.0255 6.05771V6.05771Z" fill="#00B67A"/>
<path d="M11.2524 34.9597V31.9021H3.47641V30.0676L10.8758 19.6717H13.5786V29.8929H15.7496V31.9021H13.5786V34.9597H11.2524ZM6.0241 29.8929H11.3853V22.227L6.0241 29.8929Z" fill="#222222"/>
<path d="M17.9439 35.0908C17.5008 35.0908 17.1316 34.9525 16.8362 34.6758C16.5556 34.3846 16.4153 34.0425 16.4153 33.6493C16.4153 33.2417 16.5556 32.8995 16.8362 32.6229C17.1316 32.3317 17.5008 32.1861 17.9439 32.1861C18.387 32.1861 18.7488 32.3317 19.0294 32.6229C19.3101 32.8995 19.4504 33.2417 19.4504 33.6493C19.4504 34.0425 19.3101 34.3846 19.0294 34.6758C18.7488 34.9525 18.387 35.0908 17.9439 35.0908Z" fill="#222222"/>
<path d="M25.5543 35.2218C24.5352 35.2218 23.6638 35.0253 22.9401 34.6321C22.2164 34.239 21.6478 33.7149 21.2343 33.0597C20.8355 32.4045 20.5918 31.691 20.5032 30.9193H22.6964C22.8294 31.6765 23.1469 32.2589 23.649 32.6665C24.1512 33.0742 24.7937 33.2781 25.5764 33.2781C26.6546 33.2781 27.5407 32.783 28.2349 31.7929C28.9438 30.7883 29.3204 29.2522 29.3647 27.1847C29.0103 27.8253 28.4564 28.3713 27.7032 28.8227C26.9647 29.2741 26.1081 29.4997 25.1334 29.4997C24.262 29.4997 23.4423 29.2959 22.6743 28.8882C21.9063 28.4805 21.286 27.9127 20.8134 27.1847C20.3407 26.4421 20.1044 25.5685 20.1044 24.5639C20.1044 23.6757 20.326 22.8385 20.769 22.0523C21.2121 21.2661 21.8324 20.6327 22.63 20.1522C23.4423 19.6572 24.4023 19.4097 25.51 19.4097C26.6472 19.4097 27.6072 19.6208 28.39 20.043C29.1727 20.4653 29.8004 21.0258 30.273 21.7247C30.7457 22.4236 31.0854 23.2098 31.2921 24.0834C31.5137 24.957 31.6244 25.8525 31.6244 26.7697C31.6244 28.4587 31.3807 29.9365 30.8934 31.2033C30.4207 32.47 29.734 33.4601 28.833 34.1735C27.9321 34.8724 26.8392 35.2218 25.5543 35.2218ZM25.665 27.5123C26.2854 27.5123 26.8392 27.374 27.3266 27.0973C27.814 26.8207 28.198 26.4567 28.4786 26.0053C28.774 25.5394 28.9217 25.0298 28.9217 24.4765C28.9217 23.8796 28.774 23.3554 28.4786 22.9041C28.198 22.4381 27.8066 22.0741 27.3044 21.8121C26.817 21.55 26.2632 21.4189 25.6429 21.4189C25.0226 21.4189 24.4687 21.55 23.9814 21.8121C23.494 22.0741 23.1026 22.4381 22.8072 22.9041C22.5266 23.3554 22.3863 23.8723 22.3863 24.4547C22.3863 25.3865 22.6964 26.1291 23.3167 26.6824C23.937 27.2357 24.7198 27.5123 25.665 27.5123Z" fill="#222222"/>
<path d="M33.846 24.87C33.846 22.8597 35.4991 21.23 37.5383 21.23H43.0768C45.116 21.23 46.7691 22.8597 46.7691 24.87V30.33C46.7691 32.3403 45.116 33.97 43.0768 33.97H37.5383C35.4991 33.97 33.846 32.3403 33.846 30.33V24.87Z" fill="#51B27F"/>
<path d="M40.3075 29.2962L42.3129 28.8199L43.151 31.2408L40.3075 29.2962ZM44.9229 26.1672H41.3925L40.3075 23.0508L39.2225 26.1672H35.6922L38.5495 28.0988L37.4645 31.2152L40.3218 29.2836L42.0799 28.0988L44.9229 26.1672Z" fill="white"/>
<path d="M49.5383 24.87C49.5383 22.8597 51.1914 21.23 53.2306 21.23H58.7691C60.8083 21.23 62.4614 22.8597 62.4614 24.87V30.33C62.4614 32.3403 60.8083 33.97 58.7691 33.97H53.2306C51.1914 33.97 49.5383 32.3403 49.5383 30.33V24.87Z" fill="#51B27F"/>
<path d="M55.9999 29.2962L58.0052 28.8199L58.8433 31.2408L55.9999 29.2962ZM60.6152 26.1672H57.0849L55.9999 23.0508L54.9149 26.1672H51.3845L54.2418 28.0988L53.1568 31.2152L56.0141 29.2836L57.7722 28.0988L60.6152 26.1672Z" fill="white"/>
<path d="M65.2306 24.87C65.2306 22.8597 66.8837 21.23 68.9229 21.23H74.4614C76.5006 21.23 78.1537 22.8597 78.1537 24.87V30.33C78.1537 32.3403 76.5006 33.97 74.4614 33.97H68.9229C66.8837 33.97 65.2306 32.3403 65.2306 30.33V24.87Z" fill="#51B27F"/>
<path d="M71.6922 29.2962L73.6975 28.8199L74.5356 31.2408L71.6922 29.2962ZM76.3075 26.1672H72.7772L71.6922 23.0508L70.6072 26.1672H67.0768L69.9341 28.0988L68.8491 31.2152L71.7064 29.2836L73.4645 28.0988L76.3075 26.1672Z" fill="white"/>
<path d="M80.9229 24.87C80.9229 22.8597 82.576 21.23 84.6152 21.23H90.1537C92.1929 21.23 93.846 22.8597 93.846 24.87V30.33C93.846 32.3403 92.1929 33.97 90.1537 33.97H84.6152C82.576 33.97 80.9229 32.3403 80.9229 30.33V24.87Z" fill="#51B27F"/>
<path d="M87.3845 29.2962L89.3898 28.8199L90.2279 31.2408L87.3845 29.2962ZM91.9998 26.1672H88.4695L87.3845 23.0508L86.2995 26.1672H82.7691L85.6264 28.0988L84.5414 31.2152L87.3987 29.2836L89.1568 28.0988L91.9998 26.1672Z" fill="white"/>
<path d="M96.6152 24.87C96.6152 22.8597 98.2683 21.23 100.308 21.23H105.846C107.885 21.23 109.538 22.8597 109.538 24.87V30.33C109.538 32.3403 107.885 33.97 105.846 33.97H100.308C98.2683 33.97 96.6152 32.3403 96.6152 30.33V24.87Z" fill="#51B27F"/>
<path d="M103.077 29.2962L105.082 28.8199L105.92 31.2408L103.077 29.2962ZM107.692 26.1672H104.162L103.077 23.0508L101.992 26.1672H98.4614L101.319 28.0988L100.234 31.2152L103.091 29.2836L104.849 28.0988L107.692 26.1672Z" fill="white"/>
</svg>
