<svg width="70" height="14" viewBox="0 0 70 14" fill="none" xmlns="http://www.w3.org/2000/svg">
<path d="M16.0768 2.93994H23.3276V4.2431H20.4799V11.5553H18.9119V4.2431H16.0768V2.93994Z" fill="#222222"/>
<path d="M23.0136 5.317H24.3559V6.52363H24.381C24.4228 6.3547 24.5023 6.1898 24.6194 6.02891C24.7448 5.86803 24.8912 5.72323 25.0584 5.59453C25.234 5.45778 25.4264 5.34918 25.6355 5.26874C25.8445 5.1883 26.0578 5.14807 26.2752 5.14807C26.4425 5.14807 26.5554 5.1521 26.6139 5.16014C26.6809 5.16818 26.7478 5.17623 26.8147 5.18427V6.51157C26.7143 6.49548 26.6098 6.48341 26.501 6.47537C26.4007 6.45928 26.3003 6.45124 26.2 6.45124C25.9574 6.45124 25.7275 6.4995 25.51 6.59603C25.3009 6.68452 25.117 6.82127 24.9581 7.00628C24.7992 7.18326 24.6737 7.40447 24.5817 7.66993C24.4897 7.93539 24.4437 8.24107 24.4437 8.58697V11.5553H23.0136V5.317Z" fill="#222222"/>
<path d="M33.1191 11.5553H31.7141V10.6865H31.689C31.5134 11.0002 31.25 11.2536 30.8987 11.4467C30.5558 11.6317 30.2046 11.7242 29.845 11.7242C28.9919 11.7242 28.3731 11.5231 27.9884 11.1209C27.612 10.7106 27.4239 10.0953 27.4239 9.27475V5.317H28.8539V9.14202C28.8539 9.68902 28.9627 10.0751 29.1801 10.3004C29.3975 10.5256 29.7028 10.6382 30.0959 10.6382C30.3969 10.6382 30.6478 10.594 30.8485 10.5055C31.0493 10.417 31.2123 10.3004 31.3378 10.1556C31.4632 10.0027 31.551 9.82175 31.6012 9.61261C31.6598 9.40346 31.689 9.17822 31.689 8.93689V5.317H33.1191V11.5553Z" fill="#222222"/>
<path d="M35.7061 9.55227C35.7479 9.95448 35.9068 10.236 36.1827 10.3969C36.4587 10.5578 36.7891 10.6382 37.1738 10.6382C37.3076 10.6382 37.4581 10.6302 37.6254 10.6141C37.801 10.59 37.9641 10.5498 38.1146 10.4934C38.2652 10.4371 38.3864 10.3567 38.4784 10.2521C38.5788 10.1395 38.6248 9.9947 38.6164 9.81773C38.608 9.64076 38.5411 9.49596 38.4157 9.38335C38.2902 9.27073 38.1272 9.18224 37.9264 9.11789C37.7341 9.04549 37.5125 8.98516 37.2616 8.93689C37.0107 8.88863 36.7556 8.83634 36.4964 8.78003C36.2287 8.72372 35.9695 8.65534 35.7186 8.5749C35.4761 8.49446 35.2544 8.38586 35.0537 8.24911C34.8614 8.11236 34.7067 7.93941 34.5896 7.73026C34.4725 7.51307 34.414 7.24761 34.414 6.93389C34.414 6.59603 34.4976 6.31448 34.6649 6.08925C34.8405 5.85596 35.0579 5.67095 35.3172 5.5342C35.5848 5.3894 35.8775 5.28885 36.1953 5.23254C36.5215 5.17623 36.8309 5.14807 37.1236 5.14807C37.4581 5.14807 37.7759 5.18427 38.077 5.25667C38.3864 5.32103 38.6624 5.42962 38.9049 5.58246C39.1558 5.7353 39.3607 5.93641 39.5196 6.18578C39.6869 6.4271 39.7914 6.72072 39.8332 7.06662H38.3404C38.2735 6.7368 38.1146 6.51559 37.8637 6.40297C37.6212 6.29035 37.341 6.23404 37.0232 6.23404C36.9229 6.23404 36.8016 6.24209 36.6594 6.25817C36.5256 6.27426 36.396 6.30644 36.2706 6.3547C36.1535 6.39493 36.0531 6.45928 35.9695 6.54777C35.8859 6.62821 35.844 6.7368 35.844 6.87356C35.844 7.04248 35.9026 7.17923 36.0197 7.28381C36.1451 7.38838 36.304 7.47687 36.4964 7.54927C36.6971 7.61362 36.9229 7.66993 37.1738 7.7182C37.4247 7.76646 37.6839 7.81875 37.9515 7.87506C38.2108 7.93137 38.4659 7.99974 38.7168 8.08018C38.9677 8.16063 39.1893 8.26922 39.3816 8.40598C39.5823 8.54273 39.7412 8.71568 39.8583 8.92483C39.9838 9.13398 40.0465 9.39139 40.0465 9.69707C40.0465 10.0671 39.9587 10.3808 39.7831 10.6382C39.6074 10.8957 39.3774 11.1048 39.0931 11.2657C38.8171 11.4266 38.5077 11.5432 38.1648 11.6156C37.8219 11.688 37.4832 11.7242 37.1487 11.7242C36.7389 11.7242 36.3584 11.68 36.0071 11.5915C35.6642 11.503 35.3632 11.3703 35.1039 11.1933C34.853 11.0083 34.6523 10.783 34.5018 10.5176C34.3596 10.2441 34.2843 9.92231 34.276 9.55227H35.7061Z" fill="#222222"/>
<path d="M40.48 5.317H41.5588V3.44673H42.9889V5.317H44.281V6.34264H42.9889V9.67294C42.9889 9.81773 42.9931 9.94242 43.0014 10.047C43.0182 10.1516 43.0474 10.2401 43.0892 10.3125C43.1394 10.3848 43.2105 10.4412 43.3025 10.4814C43.3945 10.5136 43.5199 10.5296 43.6788 10.5296C43.7792 10.5296 43.8796 10.5296 43.9799 10.5296C44.0803 10.5216 44.1806 10.5055 44.281 10.4814V11.5432C44.1221 11.5593 43.9674 11.5754 43.8168 11.5915C43.6663 11.6076 43.5116 11.6156 43.3527 11.6156C42.9763 11.6156 42.6711 11.5834 42.4369 11.5191C42.2111 11.4467 42.0313 11.3461 41.8975 11.2174C41.7721 11.0807 41.6842 10.9117 41.6341 10.7106C41.5923 10.5095 41.5672 10.2803 41.5588 10.0229V6.34264H40.48V5.317Z" fill="#222222"/>
<path d="M45.3474 5.317H46.7022V6.16164H46.7273C46.928 5.79965 47.2082 5.54224 47.5678 5.3894C47.9274 5.22852 48.3163 5.14807 48.7344 5.14807C49.2446 5.14807 49.6878 5.23656 50.0641 5.41353C50.4488 5.58246 50.7666 5.81977 51.0175 6.12544C51.2684 6.42308 51.4566 6.773 51.582 7.17521C51.7075 7.57742 51.7702 8.00779 51.7702 8.46631C51.7702 8.8846 51.7117 9.29084 51.5946 9.685C51.4859 10.0792 51.3144 10.4291 51.0803 10.7348C50.8545 11.0324 50.5659 11.2737 50.2147 11.4587C49.8634 11.6357 49.4495 11.7242 48.9728 11.7242C48.7637 11.7242 48.5546 11.7041 48.3455 11.6639C48.1365 11.6317 47.9357 11.5754 47.7434 11.4949C47.551 11.4145 47.3712 11.314 47.204 11.1933C47.0451 11.0646 46.9113 10.9158 46.8025 10.7468H46.7775V13.8599H45.3474V5.317ZM50.3401 8.44217C50.3401 8.16063 50.3025 7.88712 50.2272 7.62167C50.152 7.35621 50.0391 7.12293 49.8885 6.92182C49.738 6.71267 49.5498 6.54777 49.324 6.4271C49.0982 6.2984 48.839 6.23404 48.5462 6.23404C47.9441 6.23404 47.4883 6.43515 47.1789 6.83736C46.8778 7.23957 46.7273 7.77451 46.7273 8.44217C46.7273 8.7559 46.7649 9.04951 46.8402 9.32301C46.9238 9.58847 47.0451 9.81773 47.204 10.0108C47.3629 10.2039 47.551 10.3567 47.7685 10.4693C47.9943 10.5819 48.2535 10.6382 48.5462 10.6382C48.8724 10.6382 49.1484 10.5739 49.3742 10.4452C49.6 10.3165 49.784 10.1516 49.9262 9.95046C50.0767 9.74131 50.1812 9.50803 50.2398 9.25062C50.3067 8.98516 50.3401 8.71568 50.3401 8.44217Z" fill="#222222"/>
<path d="M53.0162 2.93994H54.4463V4.2431H53.0162V2.93994ZM53.0162 5.317H54.4463V11.5553H53.0162V5.317Z" fill="#222222"/>
<path d="M56.0421 2.93994H57.4722V11.5553H56.0421V2.93994Z" fill="#222222"/>
<path d="M62.0035 11.7242C61.485 11.7242 61.0208 11.6438 60.611 11.4829C60.2096 11.314 59.8667 11.0847 59.5824 10.7951C59.3064 10.5055 59.0931 10.1596 58.9426 9.7574C58.8004 9.35519 58.7293 8.91276 58.7293 8.43011C58.7293 7.9555 58.8004 7.51709 58.9426 7.11488C59.0931 6.71267 59.3064 6.36677 59.5824 6.07718C59.8667 5.78759 60.2096 5.56235 60.611 5.40147C61.0208 5.23254 61.485 5.14807 62.0035 5.14807C62.522 5.14807 62.982 5.23254 63.3834 5.40147C63.7932 5.56235 64.1361 5.78759 64.4121 6.07718C64.6964 6.36677 64.9097 6.71267 65.0518 7.11488C65.2024 7.51709 65.2776 7.9555 65.2776 8.43011C65.2776 8.91276 65.2024 9.35519 65.0518 9.7574C64.9097 10.1596 64.6964 10.5055 64.4121 10.7951C64.1361 11.0847 63.7932 11.314 63.3834 11.4829C62.982 11.6438 62.522 11.7242 62.0035 11.7242ZM62.0035 10.6382C62.3213 10.6382 62.5973 10.5739 62.8314 10.4452C63.0656 10.3165 63.2579 10.1475 63.4085 9.9384C63.559 9.72925 63.6677 9.49596 63.7346 9.23855C63.8099 8.97309 63.8475 8.70361 63.8475 8.43011C63.8475 8.16465 63.8099 7.89919 63.7346 7.63373C63.6677 7.36827 63.559 7.13499 63.4085 6.93389C63.2579 6.72474 63.0656 6.55581 62.8314 6.4271C62.5973 6.2984 62.3213 6.23404 62.0035 6.23404C61.6857 6.23404 61.4097 6.2984 61.1755 6.4271C60.9414 6.55581 60.749 6.72474 60.5985 6.93389C60.448 7.13499 60.3351 7.36827 60.2598 7.63373C60.1929 7.89919 60.1594 8.16465 60.1594 8.43011C60.1594 8.70361 60.1929 8.97309 60.2598 9.23855C60.3351 9.49596 60.448 9.72925 60.5985 9.9384C60.749 10.1475 60.9414 10.3165 61.1755 10.4452C61.4097 10.5739 61.6857 10.6382 62.0035 10.6382Z" fill="#222222"/>
<path d="M65.8142 5.317H66.893V3.44673H68.3231V5.317H69.6152V6.34264H68.3231V9.67294C68.3231 9.81773 68.3273 9.94242 68.3357 10.047C68.3524 10.1516 68.3817 10.2401 68.4235 10.3125C68.4737 10.3848 68.5448 10.4412 68.6367 10.4814C68.7287 10.5136 68.8542 10.5296 69.0131 10.5296C69.1134 10.5296 69.2138 10.5296 69.3142 10.5296C69.4145 10.5216 69.5149 10.5055 69.6152 10.4814V11.5432C69.4563 11.5593 69.3016 11.5754 69.1511 11.5915C69.0005 11.6076 68.8458 11.6156 68.6869 11.6156C68.3106 11.6156 68.0053 11.5834 67.7712 11.5191C67.5454 11.4467 67.3656 11.3461 67.2318 11.2174C67.1063 11.0807 67.0185 10.9117 66.9683 10.7106C66.9265 10.5095 66.9014 10.2803 66.893 10.0229V6.34264H65.8142V5.317Z" fill="#222222"/>
<path d="M7.20497 9.92509L10.1685 9.18416L11.407 12.95L7.20497 9.92509ZM14.0255 5.05771H8.80836L7.20497 0.209961L5.60158 5.05771H0.38446L4.60693 8.06239L3.00354 12.9101L7.226 9.90546L9.82405 8.06239L14.0255 5.05771V5.05771Z" fill="#00B67A"/>
</svg>
